<?xml version="1.0" encoding="UTF-8" standalone="no"?>
<!-- Created with Inkscape (http://www.inkscape.org/) -->

<svg
   version="1.1"
   id="svg84"
   width="510"
   height="510"
   viewBox="0 0 510 510"
   xmlns="http://www.w3.org/2000/svg"
   xmlnsSvg="http://www.w3.org/2000/svg">
  <defs
     id="defs88" />
  <g
     id="g90">
    <path
       style="fill:#ffffff;stroke:none;stroke-width:1.36591"
       d="m 183.12252,424.58694 c -51.53848,0.53805 -103.161187,-1.02398 -154.646519,1.46729 -19.6371176,3.36168 -30.1749089,28.63787 -19.5122232,45.32843 5.6744352,9.21854 14.9992432,18.41576 26.7818562,15.82593 142.779596,0.29246 285.565496,2.112 428.342586,0.98589 12.02858,-0.4418 26.75971,1.13977 34.60196,-10.19836 12.57325,-14.47486 8.58747,-39.02393 -8.17146,-48.52712 -9.91479,-8.92551 -24.14201,-3.34578 -36.14056,-4.89006 -90.41854,0.002 -180.8371,-0.006 -271.25564,0.008 z"
       id="path38420" />
    <path
       style="fill:#ffffff;stroke:none;stroke-width:1.36591"
       d="m 403.68214,278.94423 c -125.50666,0.2853 -251.01247,0.86428 -376.518692,1.29121 -16.208999,5.20346 -27.3891717,24.35902 -20.3365708,40.71849 3.7339348,8.41857 10.2645368,17.56515 19.2213998,20.06891 152.309183,1.25099 304.623033,1.72826 456.936613,2.03908 17.87708,-5.25606 28.51059,-26.98368 20.43528,-44.10926 -5.13026,-12.23441 -17.70372,-21.07635 -31.24159,-19.53021 -22.82413,-0.63759 -45.66581,-0.43081 -68.49644,-0.47822 z"
       id="path38344" />
    <path
       style="fill:#ffffff;stroke:none;stroke-width:1.36591"
       d="m 23.804699,134.80615 c -9.860083,7.00206 -19.5044298,16.72633 -18.9173059,29.79922 0.096953,15.23715 -0.9622616,31.07929 2.9559125,45.878 5.6191154,8.45315 15.4257364,0.53959 21.2419744,-3.33247 9.834096,-6.92542 22.536168,-13.82881 34.314774,-6.88783 12.387819,5.79161 25.631688,15.77956 39.883476,9.41463 13.76104,-4.75144 28.39694,-15.70993 43.20487,-7.6032 13.22235,6.2267 28.80854,14.17692 43.22088,6.42671 12.03238,-5.8474 25.67654,-13.868 39.17919,-7.12567 12.93845,5.48438 26.31924,11.41376 40.75584,9.57737 17.26117,-0.0925 30.10629,-18.4769 47.72945,-13.12554 13.19735,5.06843 23.48992,19.17074 39.05646,15.95606 16.01593,-1.78353 28.72384,-15.89072 45.12035,-14.7849 14.10761,2.60302 26.55241,15.49033 41.45747,11.73295 9.03678,-2.61309 14.30707,-16.99604 25.00254,-12.03707 10.3403,3.09303 19.60195,13.33326 30.96238,10.72718 10.84025,-5.24551 8.02745,-19.82741 7.79889,-29.59216 -2.00616,-14.85324 -0.55218,-34.73478 -15.87163,-43.04912 -15.63094,-5.70511 -32.92875,-1.99011 -49.19673,-3.13999 -16.38615,-1.34271 -28.50142,16.43533 -45.25107,13.46168 -9.67458,2.25204 -14.60187,-6.37255 -20.82745,-12.02374 -11.96518,-3.3575 -25.20109,-0.48193 -37.65587,-1.43794 -13.96536,0.83999 -28.57724,-1.72028 -42.11908,1.34724 -4.64776,8.37979 -12.12508,16.69682 -22.68689,15.64926 -14.40364,1.23199 -26.39677,-8.2692 -37.08857,-16.33452 -32.40491,-1.49068 -65.27773,-0.22554 -97.86164,-0.66198 -9.81817,4.69444 -21.85883,11.3289 -32.64309,4.91141 -11.367889,-8.85541 -26.556434,-3.4234 -39.808782,-4.91141 -13.887866,0.75174 -28.428221,-1.53751 -41.956349,1.16583 z"
       id="path38120" />
    <g
       id="g36703"
       transform="translate(-372.82347,1088.5858)">
      <path
         style="fill:#f3eeee;stroke-width:0.727273"
         d="m 726.41008,-600.21144 c -0.16604,-0.15135 -66.57462,-0.50671 -147.57461,-0.7897 -187.45468,-0.65489 -179.41534,-0.53901 -183.63604,-2.64693 -1.82456,-0.91123 -4.80045,-3.11891 -6.61311,-4.90595 -9.77527,-9.63719 -13.33382,-21.50262 -9.82753,-32.76834 2.74967,-8.83472 8.30949,-15.20427 17.06347,-19.54859 l 4.81901,-2.39153 226.87607,-0.45489 226.87607,-0.45488 4.78307,2.3547 c 9.09165,4.47581 16.70255,13.40598 19.06682,22.37183 1.29456,4.90933 0.95464,12.32154 -0.83448,18.19629 -1.59338,5.23202 -6.60022,12.40049 -10.937,15.65889 -7.50019,5.6352 -2.5195,5.27156 -74.97083,5.47361 -35.63397,0.0994 -64.92487,0.0569 -65.09091,-0.0945 z m 129.94075,-5.15074 c 14.84096,-4.4225 22.81841,-23.30538 15.95372,-37.76293 -2.63464,-5.54874 -9.10272,-12.0137 -14.64159,-14.63454 l -4.28205,-2.02615 -225.84356,0.38193 -225.84355,0.38193 -4.57986,2.31191 c -5.7347,2.89487 -10.01002,7.15525 -12.82392,12.77911 -1.93963,3.87653 -2.18182,5.08718 -2.18182,10.90604 0,5.84887 0.24651,7.06583 2.31635,11.43515 2.76341,5.83341 7.62279,11.25206 12.39342,13.81975 l 3.47205,1.86877 155.99999,0.51882 c 85.8,0.28536 156.1154,0.6252 156.25644,0.75523 0.14105,0.13001 31.72286,0.26571 70.18182,0.30155 60.48062,0.0564 70.42474,-0.0836 73.62256,-1.03657 z m -129.94075,-140.3038 c -0.16604,-0.15135 -66.57462,-0.50671 -147.57461,-0.7897 -187.45468,-0.65489 -179.41534,-0.53901 -183.63604,-2.64693 -1.82456,-0.91123 -4.80045,-3.11891 -6.61311,-4.90595 -9.77527,-9.63719 -13.33382,-21.50262 -9.82753,-32.76834 2.74967,-8.83472 8.30949,-15.20427 17.06347,-19.54859 l 4.81901,-2.39153 226.87607,-0.45489 226.87607,-0.45488 4.78307,2.3547 c 9.09165,4.4758 16.70255,13.40598 19.06682,22.37183 1.29456,4.90933 0.95464,12.32154 -0.83448,18.19629 -1.59338,5.23202 -6.60022,12.40049 -10.937,15.65889 -7.50019,5.6352 -2.5195,5.27156 -74.97083,5.47361 -35.63397,0.0994 -64.92487,0.0569 -65.09091,-0.0945 z m 129.94075,-5.15074 c 14.84096,-4.42251 22.81841,-23.30538 15.95372,-37.76293 -2.63464,-5.54874 -9.10272,-12.0137 -14.64159,-14.63454 l -4.28205,-2.02615 -225.84356,0.38193 -225.84355,0.38193 -4.57986,2.31191 c -5.7347,2.89487 -10.01002,7.15524 -12.82392,12.77911 -1.93963,3.87653 -2.18182,5.08718 -2.18182,10.90604 0,5.84886 0.24651,7.06583 2.31635,11.43515 2.76341,5.83341 7.62279,11.25206 12.39342,13.81975 l 3.47205,1.86877 155.99999,0.51882 c 85.8,0.28536 156.1154,0.6252 156.25644,0.75522 0.14105,0.13002 31.72286,0.26572 70.18182,0.30156 60.48062,0.0564 70.42474,-0.0836 73.62256,-1.03657 z M 717.01728,-875.32737 c -3.12975,-1.09227 -8.50375,-4.41475 -16.36364,-10.11686 -6.52874,-4.7364 -12.49703,-7.14094 -17.81818,-7.17867 -4.54676,-0.0322 -5.11619,0.17932 -14.91232,5.54065 -5.60179,3.06581 -11.82914,6.22222 -13.83857,7.01426 -7.85107,3.09461 -20.74583,3.72086 -30.13961,1.46376 -1.81022,-0.43495 -7.05495,-2.53844 -11.65495,-4.67442 -21.13161,-9.81235 -26.13196,-9.86647 -42.46849,-0.45962 -10.23654,5.89438 -10.87887,6.12217 -18.44166,6.53999 -9.17695,0.50699 -14.11706,-0.68484 -24.18076,-5.83375 -18.13163,-9.27673 -22.45383,-9.35019 -39.73112,-0.67526 -10.69077,5.36784 -15.543,6.85704 -22.45069,6.8904 -6.47942,0.0313 -8.89824,-0.75979 -15.96,-5.21968 -10.54298,-6.65851 -18.41915,-9.59491 -25.83098,-9.63037 -5.71349,-0.0273 -11.34037,2.53881 -19.91816,9.08365 -8.24088,6.28777 -11.18794,7.74024 -15.70496,7.74024 -2.97826,0 -4.07717,-0.37822 -5.94323,-2.04555 -2.18279,-1.95032 -2.3196,-2.39893 -2.93882,-9.63637 -0.3572,-4.17494 -0.72305,-15.78287 -0.81301,-25.79539 l -0.16357,-18.20456 2.7243,-5.4318 c 3.05794,-6.097 4.1958,-7.49657 10.38469,-12.77307 8.07408,-6.88376 4.07044,-6.28939 41.47561,-6.15731 l 33.13955,0.11703 -2.60187,-3.85468 c -8.06178,-11.94351 -11.09497,-30.56056 -7.67825,-47.12735 3.57072,-17.3136 12.6071,-26.6362 28.67889,-29.5872 l 6.09656,-1.1195 -1.32118,-2.283 c -3.19133,-5.5148 -4.58052,-15.0278 -2.77362,-18.9936 1.04368,-2.2906 3.56263,-3.0188 6.39056,-1.8474 2.86877,1.1883 8.69226,7.2298 10.62991,11.0279 l 1.57722,3.0916 1.13718,-2.1991 c 1.46649,-2.8358 6.1531,-7.0574 10.03143,-9.036 2.45233,-1.2511 3.38471,-1.401 4.77464,-0.7677 3.06093,1.3947 4.06943,7.1611 2.17586,12.4412 l -0.91285,2.5455 5.77712,-0.2405 c 7.13727,-0.2971 11.87116,1.2078 12.57106,3.9964 0.37015,1.4748 -0.14303,2.4346 -2.72865,5.1033 -1.75149,1.8078 -4.75879,4.3606 -6.68289,5.6729 l -3.49836,2.386 2.40745,1.502 c 1.3241,0.8261 4.73879,3.8923 7.5882,6.8137 5.49642,5.6353 6.81926,8.5648 6.81926,15.1017 0,4.06913 -4.4612,17.52245 -8.50942,25.66121 -2.91332,5.85711 -4.33671,7.69794 -10.96831,14.18509 l -7.62054,7.45455 h 43.36731 c 23.85202,0 43.36732,-0.19836 43.36732,-0.4408 0,-0.24244 -0.98182,-1.68045 -2.18182,-3.19557 -1.2,-1.51512 -2.18182,-2.93872 -2.18182,-3.16356 0,-0.22484 -0.92508,-1.97774 -2.05574,-3.89534 -1.13066,-1.9176 -2.15168,-3.81382 -2.26895,-4.21382 -0.11726,-0.4 -0.47225,-1.40863 -0.78887,-2.2414 -3.18743,-8.38357 -3.67807,-16.18185 -1.43671,-22.83522 1.73813,-5.15956 5.25378,-11.00004 9.03366,-15.00744 1.40043,-1.4847 2.39263,-2.948 2.2049,-3.2517 -0.18774,-0.3038 -1.31939,-0.7672 -2.51481,-1.0297 -1.19541,-0.2626 -2.17348,-0.7014 -2.17348,-0.9752 0,-0.2738 -1.34436,-1.3114 -2.98748,-2.3058 -6.63389,-4.0149 -9.82722,-11.131 -6.39059,-14.2408 2.18709,-1.9792 12.01726,-1.8534 16.68871,0.2134 l 3.31064,1.4648 0.0783,-5.0833 c 0.10289,-6.6765 3.09966,-13.1203 6.27255,-13.4875 2.92152,-0.3381 6.85222,2.9461 8.8908,7.4284 0.92929,2.0433 1.70847,3.3733 1.73151,2.9555 0.0456,-0.8269 6.44002,-5.9047 9.31189,-7.3947 2.48941,-1.2915 5.64383,-1.4126 7.0212,-0.2695 1.76278,1.463 1.17093,8.601 -1.36811,16.5 -0.46662,1.4517 -0.25416,1.5269 4.11061,1.4546 8.98975,-0.1489 13.73519,0.8168 17.82872,3.6282 5.1235,3.5187 6.9804,6.3108 9.69163,14.5723 0.90176,2.7478 1.96335,5.4051 2.35908,5.9051 0.39574,0.5 0.53033,0.909 0.29909,0.909 -0.23123,0 0.0322,1.2828 0.58535,2.85071 2.26048,6.40687 3.11706,17.29425 1.86425,23.69479 -0.46977,2.4 -1.01968,5.34546 -1.22204,6.54546 -0.45076,2.67315 -1.2573,6.0688 -2.63433,11.09091 l -1.04692,3.81818 h 34.73268 34.73268 l -1.36017,-3.57968 c -2.34939,-6.1831 -3.58389,-13.76887 -3.50071,-21.51123 0.0572,-5.32474 2.46734,-18.40863 3.61044,-19.6 0.3646,-0.38 0.66291,-1.21854 0.66291,-1.86344 0,-0.6448 0.65455,-2.5272 1.45455,-4.183 0.8,-1.6558 1.45454,-3.3537 1.45454,-3.773 0,-0.4193 0.32728,-0.7624 0.72728,-0.7624 0.4,0 0.72727,-0.4408 0.72727,-0.9796 0,-0.5388 0.65455,-1.7343 1.45455,-2.6567 0.8,-0.9224 1.45454,-1.8941 1.45454,-2.1592 0,-1.2585 7.04387,-7.3097 10.60797,-9.113 5.47673,-2.771 10.64516,-3.8477 17.92174,-3.7335 l 6.15345,0.097 -1.0553,-2.5254 c -0.59465,-1.4231 -1.08697,-5.0739 -1.12787,-8.3637 -0.0864,-6.9516 1.56624,-11.2329 4.76136,-12.3345 1.69003,-0.5826 2.39982,-0.3542 4.72727,1.5212 3.37736,2.7215 6.32945,6.949 7.53699,10.7933 1.34979,4.2971 1.35835,4.3016 3.8291,2.0123 3.23214,-2.9947 5.47877,-4.263 9.85135,-5.5615 3.43291,-1.0195 3.99291,-1.0217 5.51892,-0.022 0.93409,0.612 1.86922,1.5581 2.07807,2.1023 0.70274,1.8313 -0.25877,7.6083 -1.69059,10.1576 l -1.42013,2.5284 2.69929,0.4508 c 9.47554,1.5825 15.31638,5.0825 14.07628,8.4347 -0.68375,1.8484 -9.38622,7.5501 -12.64972,8.2879 -2.48305,0.5613 -2.49894,1.0739 -0.10235,3.3007 1.79028,1.6633 6.96505,9.12871 8.98935,12.96842 1.5627,2.96416 0.55905,12.05935 -1.8533,16.79468 -1.12075,2.2 -2.30274,4.10909 -2.62663,4.24242 -0.32388,0.13334 -0.58889,0.57679 -0.58889,0.98544 0,0.40866 -0.98182,2.19779 -2.18182,3.97586 -1.2,1.77805 -2.18181,3.4077 -2.18181,3.62144 0,0.74816 -6.76606,8.99304 -7.38002,8.99304 -0.34099,0 -0.61998,0.33109 -0.61998,0.73575 0,0.48274 7.56499,0.69171 22,0.60772 24.19439,-0.14078 24.8897,-0.042 31.44183,4.46597 8.14299,5.60253 10.74279,13.80617 12.79433,40.37238 0.93933,12.16358 0.49555,22.64521 -1.08843,25.70828 -0.57558,1.11307 -2.31416,2.90223 -3.86349,3.97592 -5.34294,3.70266 -12.48667,2.20689 -23.46606,-4.91339 -9.21696,-5.97731 -13.22797,-7.24328 -17.63745,-5.5668 -0.95267,0.36221 -4.32852,3.09643 -7.50188,6.07604 -7.22866,6.7873 -9.68457,8.11794 -14.86067,8.05164 -5.24439,-0.0672 -11.42506,-2.21602 -22.54546,-7.83846 -14.8006,-7.48315 -19.41347,-7.75631 -30.54545,-1.80884 -11.28184,6.02754 -20.13946,10.10063 -24.33462,11.19001 -5.47795,1.42249 -12.17084,1.38739 -16.39265,-0.086 z m -325.97663,-4.27983 c 1.48715,-0.62028 5.64937,-3.36214 9.24937,-6.09301 3.6,-2.73087 8.67272,-6.06882 11.27272,-7.41767 4.49197,-2.33037 5.10739,-2.45226 12.36364,-2.44864 7.01577,0.004 8.08628,0.19772 13.17249,2.38978 3.04486,1.31228 8.6085,4.21772 12.36363,6.45654 13.72561,8.18326 17.61668,8.08396 35.91842,-0.91663 18.29156,-8.99558 25.0371,-9.04594 41.54027,-0.31011 10.08775,5.33987 14.88872,6.77153 22.71742,6.77439 5.855,0.002 6.31766,-0.125 12.72727,-3.49759 15.83889,-8.33406 17.68855,-9.15495 22.36356,-9.92515 6.10832,-1.00632 13.45673,0.36898 21.75645,4.07185 3.19227,1.42421 8.34048,3.72058 11.44048,5.10304 6.88812,3.0718 14.50414,4.34248 22.83718,3.81025 7.45249,-0.476 12.18172,-2.19629 24.08553,-8.76126 4.50621,-2.48518 9.16931,-4.89229 10.36247,-5.34915 8.80269,-3.37052 17.82918,-0.66459 31.98755,9.58911 3.2,2.31748 7.45454,4.98405 9.45454,5.92571 7.89664,3.71797 17.83773,1.57242 33.71302,-7.27616 10.98391,-6.12223 13.54426,-6.99752 20.4688,-6.99752 6.62784,0 9.32906,0.84518 19.68652,6.15969 8.26002,4.23828 17.52295,7.65849 20.74145,7.65849 3.11318,0 7.57326,-3.05771 12.42836,-8.52058 3.91087,-4.40043 4.91853,-5.12172 8.2196,-5.8837 7.14087,-1.6483 9.58759,-0.99292 20.10724,5.38602 9.37037,5.68202 11.93393,6.81944 15.70271,6.96712 2.29281,0.0898 3.28053,-0.32506 5.09616,-2.14069 2.17568,-2.17568 2.26374,-2.5132 2.59417,-9.94295 0.61661,-13.86413 -2.02544,-37.1111 -5.00484,-44.03691 -1.85553,-4.31329 -5.80349,-8.20638 -10.36224,-10.21821 -3.38126,-1.4922 -4.48137,-1.54926 -28.27706,-1.46689 l -24.75893,0.0857 -4.81384,2.80357 c -8.70884,5.072 -10.45481,5.9657 -15.81319,8.09428 -7.55647,3.00175 -8.53981,3.1918 -16.63702,3.21555 -9.31245,0.0273 -12.49511,-1.39367 -19.76574,-8.8249 l -5.2203,-5.3356 H 708.1017 671.44489 l -1.02242,2 c -2.02648,3.96414 -6.60949,9.51812 -9.35143,11.33264 -5.97187,3.952 -15.63942,5.38412 -24.33969,3.6056 -7.84824,-1.60435 -20.7306,-8.65949 -26.47635,-14.50002 l -2.39865,-2.43822 h -48.60414 -48.60415 l -4.26994,2.57187 c -5.54663,3.34085 -12.7056,5.57344 -17.72447,5.52752 -4.63287,-0.0424 -11.48903,-2.51026 -16.15468,-5.81484 l -3.11805,-2.20845 -34.66498,-0.17153 -34.66497,-0.17153 -5.16855,4.22856 c -10.34601,8.46439 -12.61629,12.85149 -13.00415,25.12931 -0.34513,10.92533 1.03552,38.83524 2.0113,40.6585 0.41849,0.78196 1.49797,1.56366 2.39885,1.73712 0.90088,0.17346 1.73029,0.35996 1.84314,0.41443 0.11284,0.0545 1.42193,-0.40846 2.90909,-1.02874 z"
         id="path36715" />
      <path
         style="fill:#fb6261;stroke-width:0.727273"
         d="m 638.47183,-933.50544 c -11.84589,-2.12545 -27.14557,-12.00422 -34.41539,-22.2215 -7.53074,-10.58397 -10.87564,-17.94896 -12.11679,-26.67941 -1.22877,-8.64338 1.7704,-17.24584 8.97245,-25.73555 l 4.08571,-4.8162 -3.66557,-1.8411 c -8.15625,-4.0967 -14.20505,-11.4213 -12.32812,-14.9284 1.77934,-3.3247 11.28177,-3.7239 17.99153,-0.7559 1.81359,0.8023 3.33765,1.4578 3.38681,1.4567 0.0492,-7e-4 0.11487,-2.2101 0.14604,-4.9091 0.0659,-5.7037 1.97742,-12.1029 4.04869,-13.5536 3.02411,-2.1182 7.48804,0.9725 10.06862,6.9713 l 1.55227,3.6083 3.47709,-3.2524 c 3.82229,-3.5753 6.49953,-5.155 10.02163,-5.9132 1.92701,-0.4148 2.49954,-0.2158 3.40961,1.1852 0.96782,1.4898 0.97188,2.3813 0.0353,7.7439 -0.58217,3.3332 -1.51073,6.9332 -2.06346,8 l -1.00496,1.9397 4.47203,-0.2636 c 2.45961,-0.145 7.17639,0.135 10.48173,0.6222 5.45051,0.8034 6.37664,1.1879 9.95316,4.1323 3.20989,2.6426 4.34426,4.2179 6.09802,8.4687 6.98646,16.93383 8.66971,27.68169 6.35585,40.58331 -4.44229,24.76936 -11.04191,35.56812 -24.0531,39.35741 -3.55574,1.03555 -11.28677,1.45088 -14.90909,0.80094 z m 124.38079,-3.66362 c -7.91193,-2.70414 -15.07447,-9.27137 -18.86751,-17.29936 -3.27876,-6.93951 -4.45726,-12.25928 -4.92107,-22.2137 -0.38946,-8.35891 -0.25776,-9.7711 1.59391,-17.09091 6.03913,-23.87317 17.48821,-34.52457 37.11022,-34.52457 6.91282,0 6.97818,-0.017 6.45856,-1.6364 -3.14217,-9.7951 -1.68965,-20.1676 2.98863,-21.3418 3.67352,-0.9219 9.66972,5.5795 11.79415,12.7879 l 1.24089,4.2105 3.17445,-2.7943 c 3.47514,-3.0589 7.9988,-5.489 11.53412,-6.1961 3.42586,-0.6851 5.61762,1.7753 5.15107,5.7825 -0.2835,2.435 -1.69065,6.4319 -3.26446,9.2724 -0.13662,0.2466 1.69448,0.6681 4.06911,0.9368 2.37935,0.2692 6.06488,1.3738 8.21004,2.4608 3.34236,1.6935 3.92431,2.3003 4.11724,4.293 0.21256,2.1954 -0.0782,2.4981 -5.38139,5.6025 -3.08336,1.8049 -6.54657,3.4882 -7.69604,3.7407 l -2.08994,0.459 3.50932,3.8397 c 1.93012,2.1119 4.71949,5.8713 6.19861,8.35433 2.45781,4.12594 2.68929,4.98206 2.68929,9.94594 0,5.99888 -0.40822,7.06983 -6.76102,17.73708 -7.6836,12.90183 -11.60795,16.87164 -23.42038,23.69163 -12.90736,7.45216 -20.21789,10.15409 -29.09132,10.75201 -3.46976,0.2338 -6.12762,-0.0113 -8.34648,-0.76965 z m -279.83485,-6.43409 c -6.07043,-1.63464 -9.66181,-3.82387 -14.75025,-8.99144 -5.4492,-5.53395 -9.81916,-13.59148 -12.46076,-22.97573 -1.34117,-4.76443 -1.63243,-7.5964 -1.60817,-15.63637 0.0628,-20.81761 6.34132,-34.29091 18.82584,-40.39901 4.47274,-2.1883 10.66302,-3.9438 13.94993,-3.956 1.2764,-0.01 2.48518,-0.2747 2.68618,-0.6 0.20101,-0.3252 -0.47285,-2.343 -1.49747,-4.4839 -2.72752,-5.6992 -3.69283,-12.1847 -2.34351,-15.745 0.89936,-2.373 1.43813,-2.8522 3.42434,-3.0454 4.20032,-0.4087 9.32509,3.7824 13.18185,10.7802 1.21085,2.197 2.20748,3.6316 2.21472,3.1879 0.007,-0.4437 1.39404,-2.3755 3.08176,-4.2928 8.79834,-9.9955 15.25869,-10.2018 15.25869,-0.4873 0,2.3758 -0.36,4.9924 -0.8,5.8145 -0.44,0.8222 -0.8,1.6092 -0.8,1.7489 0,0.1397 3.02727,0.251 6.72727,0.2473 8.21165,-0.01 11.45455,1.3031 11.45455,4.6319 0,1.6418 -0.89857,2.8679 -4.18182,5.7059 -2.3,1.9881 -5.26029,4.2678 -6.57841,5.0659 l -2.39661,1.4512 3.68157,2.3624 c 2.02485,1.2994 5.57503,4.4289 7.88927,6.9544 3.71709,4.0566 4.31743,5.144 5.14863,9.3257 1.11055,5.5872 0.64021,8.45065 -3.07286,18.70816 -4.95465,13.68744 -8.84154,19.73007 -17.95417,27.91187 -10.6147,9.53043 -18.79534,14.60047 -27.14555,16.82376 -4.63132,1.23311 -7.03833,1.21152 -11.93502,-0.10704 z"
         id="path36713" />
      <path
         style="fill:#68aa64;stroke-width:0.727273"
         d="m 638.2075,-933.7892 c -9.36235,-1.57027 -22.29433,-9.06967 -30.0348,-17.41749 -4.88546,-5.26881 -11.19642,-15.13549 -13.65253,-21.34464 -2.87896,-7.27815 -3.34119,-16.03852 -1.18772,-22.50973 1.6137,-4.84914 7.27483,-13.50284 10.15148,-15.51774 2.24108,-1.5697 1.93793,-2.1663 -2.14196,-4.2155 -8.16563,-4.1014 -14.2158,-11.4243 -12.33785,-14.9333 1.77934,-3.3247 11.28177,-3.7239 17.99153,-0.7559 1.81359,0.8023 3.33765,1.4578 3.38681,1.4567 0.0492,-7e-4 0.11487,-2.2101 0.14604,-4.9091 0.0659,-5.7037 1.97742,-12.1029 4.04869,-13.5536 3.02411,-2.1182 7.48804,0.9725 10.06862,6.9713 l 1.55227,3.6083 3.47709,-3.2524 c 3.82229,-3.5753 6.49953,-5.155 10.02163,-5.9132 1.92701,-0.4148 2.49954,-0.2158 3.40961,1.1852 0.96782,1.4898 0.97188,2.3813 0.0353,7.7439 -0.58217,3.3332 -1.53575,6.9833 -2.11906,8.1113 l -1.06057,2.0509 4.29667,-0.3896 c 2.36317,-0.2143 7.00839,0.032 10.32271,0.5478 5.02467,0.7816 6.5881,1.3717 9.40847,3.5511 4.33428,3.3492 6.35219,6.6984 9.68874,16.0808 5.00061,14.06174 5.7253,21.45719 3.39315,34.62674 -2.6898,15.1891 -5.17852,21.83253 -11.20667,29.91517 -5.49363,7.36595 -16.17508,10.78887 -27.65758,8.86299 z m 15.98225,-5.52244 c 4.49596,-1.48723 7.66581,-4.44959 11.17181,-10.4405 3.19359,-5.45709 5.0967,-11.50541 7.32277,-23.27273 2.03228,-10.74293 1.65373,-17.92319 -1.46475,-27.78303 -6.00871,-18.998 -9.53012,-22.091 -25.00189,-21.9601 l -7.8905,0.067 -3.93328,4.4156 c -2.16329,2.4285 -5.6068,5.4453 -7.65224,6.7039 l -3.71898,2.2883 -6.57731,-0.9309 -6.5773,-0.931 -4.32308,4.7016 c -2.3777,2.5858 -5.35094,6.82881 -6.60722,9.42881 -2.06013,4.26369 -2.27934,5.36916 -2.23529,11.27273 0.0413,5.5393 0.3946,7.41675 2.2982,12.21365 6.88074,17.33891 23.2644,31.96283 39.69162,35.4284 3.9512,0.83357 10.99645,0.28733 15.49744,-1.20155 z m -9.90091,-5.71463 c -0.80797,-0.97355 -0.78186,-1.34544 0.16062,-2.28792 0.90475,-0.90475 1.43581,-0.95927 2.70867,-0.27806 0.8809,0.47144 1.47985,1.39018 1.35014,2.07099 -0.31117,1.63333 -3.01175,1.95014 -4.21943,0.49499 z m 15.44058,-8.48646 c -1.23612,-1.23613 -1.12033,-3.47093 0.20621,-3.97997 1.54307,-0.59213 3.3758,1.13798 3.11675,2.94222 -0.25329,1.76407 -2.03898,2.32173 -3.32296,1.03775 z m -41.22759,-7.97276 c -2.19839,-2.61263 -2.16637,-4.53049 0.081,-4.85243 1.04279,-0.14939 2.05272,0.48288 3.08347,1.93045 1.82569,2.56393 1.95364,4.1564 0.3824,4.75933 -1.5854,0.60838 -1.4144,0.69696 -3.54688,-1.83735 z m 22.47693,0.0544 c -1.01447,-1.12097 -1.16678,-1.79531 -0.60622,-2.68398 1.19993,-1.90228 2.2832,-1.8602 3.59351,0.13959 0.9867,1.50589 1.04877,2.07726 0.32094,2.95425 -1.19225,1.43656 -1.69344,1.37448 -3.30823,-0.40986 z m 11.23659,-17.23014 c -1.48236,-3.87075 1.80517,-5.84125 3.57716,-2.14411 0.764,1.59402 0.78633,2.26702 0.10257,3.09091 -1.35458,1.63216 -2.83828,1.2504 -3.67973,-0.9468 z m -41.08919,-2.19296 c -1.74855,-1.16754 -2.45598,-3.55165 -1.45859,-4.91565 1.18192,-1.61639 2.69384,-1.1122 4.0036,1.33511 1.57157,2.93652 -0.0638,5.23729 -2.54501,3.58054 z m 15.87599,-0.2949 c -1.19552,-1.19552 -1.12724,-2.41316 0.19695,-3.51214 1.4565,-1.2088 3.43049,0.35371 3.12601,2.47438 -0.25329,1.76408 -2.03898,2.32174 -3.32296,1.03776 z m 12.95322,-3.84084 c -1.27044,-1.53079 -0.62822,-3.63546 1.1887,-3.89552 1.89407,-0.27111 2.9897,2.29622 1.66243,3.89548 -1.10438,1.3307 -1.74677,1.33071 -2.85113,4e-5 z m 19.63295,-11.25986 c -1.0707,-2.00062 -0.9318,-3.66115 0.34731,-4.15201 1.64048,-0.6295 3.26347,1.0942 3.26347,3.46598 0,1.59543 -0.33959,2.09277 -1.42896,2.09277 -0.78593,0 -1.76775,-0.63303 -2.18182,-1.40674 z m -34.27357,-5.58211 c -0.72438,-0.8728 -0.67746,-1.3065 0.24067,-2.2246 1.33325,-1.3333 2.73459,-0.7293 2.73459,1.1786 0,1.7646 -1.84157,2.412 -2.97526,1.046 z m 18.97766,-4.2776 c -0.88159,-2.3187 -0.23057,-4.0063 1.54555,-4.0063 1.58928,0 3.22423,2.9773 2.57048,4.6809 -0.69461,1.8101 -3.33593,1.3773 -4.11603,-0.6746 z m 121.0885,69.60456 c -1.44931,-0.23044 -2.81038,-0.76304 -7.62957,-2.98553 -3.90921,-1.80283 -10.50356,-8.75908 -13.00966,-13.72364 -4.20749,-8.33499 -5.54966,-14.61706 -5.47564,-25.62894 0.0363,-5.4 0.42234,-11.12727 0.85786,-12.72727 2.51548,-9.24128 3.29392,-11.44238 5.9156,-16.72728 3.86391,-7.789 9.07587,-13.5219 14.82724,-16.3092 5.45582,-2.6441 12.89921,-4.005 19.15755,-3.5026 2.54614,0.2044 4.62935,0.2616 4.62935,0.1272 0,-0.1344 -0.49091,-2.1292 -1.09091,-4.4327 -3.12507,-11.998 1.29272,-22.5225 7.51786,-17.9099 3.2844,2.4337 6.62933,7.4272 7.92892,11.8369 l 1.24089,4.2105 3.17445,-2.7943 c 3.47514,-3.0589 7.9988,-5.489 11.53412,-6.1961 3.42586,-0.6851 5.61762,1.7753 5.15107,5.7825 -0.2835,2.435 -1.69065,6.4319 -3.26446,9.2724 -0.13662,0.2466 1.69448,0.6681 4.06911,0.9368 2.37935,0.2692 6.06488,1.3738 8.21004,2.4608 3.34236,1.6935 3.92431,2.3003 4.11724,4.293 0.21256,2.1954 -0.0782,2.4981 -5.38139,5.6025 -3.08336,1.8049 -6.54482,3.4878 -7.69214,3.7398 l -2.08604,0.4582 3.32763,3.7011 c 1.83019,2.0356 4.61781,5.8728 6.19471,8.52715 2.57275,4.33059 2.86708,5.32643 2.86708,9.70073 0,5.6033 -0.95896,8.03037 -7.41238,18.76034 -5.20834,8.65981 -12.19232,16.30224 -18.59017,20.34285 -6.07411,3.83614 -17.54744,9.57902 -22.34577,11.18498 -3.59843,1.20438 -13.96074,2.44203 -16.74259,1.99971 z m 12.13789,-5.34472 c 8.84307,-1.8965 26.28431,-11.63185 32.95302,-18.39372 4.48848,-4.55118 13.20681,-18.16898 14.88229,-23.24574 2.05063,-6.21346 -0.56783,-13.18069 -7.87947,-20.96578 l -4.63355,-4.9336 -5.54827,-0.044 c -3.07227,-0.025 -7.33333,-0.601 -9.54827,-1.2916 -4.08588,-1.2738 -5.64879,-2.9305 -9.56298,-10.1364 -1.12896,-2.0784 -1.53225,-2.2391 -6.87213,-2.7395 -10.94642,-1.0258 -19.23901,1.7695 -25.44981,8.5788 -11.44245,12.545 -15.78351,36.63741 -9.69316,53.79609 2.97564,8.38344 6.8076,13.37543 13.78134,17.95325 2.80371,1.84047 3.97221,2.14206 8.48822,2.19083 2.88031,0.0311 6.96756,-0.3146 9.08277,-0.76823 z m -3.04698,-5.94466 c 0,-0.97885 0.50733,-2.20077 1.12741,-2.71539 0.93179,-0.77332 1.33977,-0.72331 2.35131,0.28824 1.50087,1.50086 0.47996,3.6179 -1.91663,3.97445 -1.23569,0.18384 -1.56209,-0.13946 -1.56209,-1.5473 z m -16.24242,-3.89722 c -0.85965,-0.85964 -0.51651,-2.94713 0.64256,-3.90908 1.57214,-1.30476 3.5885,0.68374 2.89833,2.85829 -0.4657,1.46729 -2.51596,2.07572 -3.54089,1.05079 z m 10.39368,-13.73379 c -0.70371,-0.84792 -0.71924,-1.51707 -0.0684,-2.94559 1.09679,-2.40719 3.29205,-2.05562 3.59705,0.57608 0.28679,2.47444 -2.10737,4.0821 -3.52869,2.36951 z m 20.00501,-1.8227 c -0.81241,-1.31451 0.32141,-4.20276 1.83892,-4.6844 2.94823,-0.93573 4.0493,2.01824 1.58391,4.24939 -1.52943,1.38411 -2.74108,1.5381 -3.42283,0.43501 z m 18.55818,-5.78477 c -0.78435,-0.48475 -0.85707,-1.11221 -0.30942,-2.66946 1.19963,-3.4111 5.43139,-2.99902 4.34523,0.42314 -0.61333,1.93245 -2.68128,3.08347 -4.03581,2.24632 z m -53.47088,-8.76653 c -0.69317,-1.12158 0.26309,-5.48524 1.41077,-6.43774 0.53872,-0.44709 1.54601,-0.5955 2.23843,-0.32979 1.02179,0.39209 1.17115,1.03215 0.79288,3.39772 -0.25634,1.60304 -0.63706,3.1913 -0.84605,3.52945 -0.53963,0.87313 -3.02596,0.76276 -3.59603,-0.15964 z m 32.43138,-0.26996 c -0.6434,-0.77524 -0.65975,-1.43128 -0.0635,-2.54546 0.95,-1.77509 2.39862,-1.93148 3.67256,-0.39648 0.75019,0.90392 0.67984,1.36628 -0.3873,2.54546 -1.55326,1.71633 -2.07331,1.78033 -3.2218,0.39648 z m -10.99827,-7.38018 c -1.20183,-1.44811 -0.0487,-3.5754 1.93808,-3.5754 1.6307,0 2.22261,2.18924 0.99261,3.6713 -1.12161,1.35145 -1.74647,1.33101 -2.93069,-0.0959 z m 29.1415,-2.73541 c 0,-0.938 0.64841,-2.29226 1.44091,-3.00946 1.17917,-1.06715 1.64153,-1.1375 2.54545,-0.38731 1.46444,1.21538 1.39403,2.43301 -0.22544,3.89861 -1.96073,1.77443 -3.76092,1.53423 -3.76092,-0.50184 z m -39.86023,-9.74912 c -1.11278,-2.2175 0.0554,-4.8827 2.25263,-5.1392 1.70248,-0.1987 1.97124,0.031 1.97124,1.6842 0,3.9783 -2.80847,6.27557 -4.22387,3.455 z m 24.85237,-2.7224 c -0.2519,-0.6564 -0.10927,-1.5422 0.31696,-1.9685 1.10808,-1.108 3.20757,-0.095 2.91812,1.4077 -0.3224,1.6741 -2.65284,2.0781 -3.23508,0.5608 z m -306.44667,61.05108 c -18.72649,-5.19765 -31.13442,-29.08742 -28.38253,-54.64671 1.60291,-14.88777 6.63021,-25.52757 14.56435,-30.82407 5.01905,-3.3506 11.26419,-5.6743 16.80648,-6.2536 2.35643,-0.2463 4.28443,-0.6151 4.28443,-0.8195 0,-0.2044 -0.85877,-2.187 -1.90837,-4.4056 -2.77228,-5.8602 -3.73459,-12.2623 -2.38027,-15.8358 0.89936,-2.373 1.43813,-2.8522 3.42434,-3.0454 4.20032,-0.4087 9.32509,3.7824 13.18185,10.7802 1.21085,2.197 2.20748,3.6316 2.21472,3.1879 0.007,-0.4437 1.39404,-2.3755 3.08176,-4.2928 8.79834,-9.9955 15.25869,-10.2018 15.25869,-0.4873 0,2.3758 -0.36,4.9924 -0.8,5.8145 -0.44,0.8222 -0.8,1.6092 -0.8,1.7489 0,0.1397 3.02727,0.251 6.72727,0.2473 8.21165,-0.01 11.45455,1.3031 11.45455,4.6319 0,1.6418 -0.89857,2.8679 -4.18182,5.7059 -2.3,1.9881 -5.23649,4.2533 -6.52554,5.0337 l -2.34372,1.419 4.33002,3.0537 c 6.67884,4.71 11.21552,10.6044 12.26416,15.9346 0.99597,5.0624 0.6532,7.07365 -3.09049,18.13422 -4.27867,12.64115 -6.98784,17.07176 -15.70323,25.68123 -16.11917,15.92328 -30.08315,22.40006 -41.47665,19.23773 z m 11.68618,-4.40975 c 7.78849,-2.31084 11.92486,-4.87752 22.92198,-14.22343 10.47019,-8.8981 13.83656,-14.00679 18.84899,-28.60455 3.18512,-9.27605 3.50139,-13.81545 1.26763,-18.19395 -1.80163,-3.5315 -8.02057,-9.5328 -12.74187,-12.2961 -3.39846,-1.989 -3.57229,-2.0128 -8.24586,-1.131 -2.62581,0.4955 -6.95448,0.7279 -9.61926,0.5165 -4.83834,-0.3837 -4.85075,-0.3904 -8.93555,-4.8217 -4.0393,-4.3819 -4.13977,-4.4374 -8.02902,-4.4374 -4.62652,0 -11.08412,1.5605 -15.2477,3.6846 -7.16552,3.6556 -11.99223,10.7019 -14.91233,21.77 -1.67707,6.35661 -1.67485,21.00047 0.004,27.99996 2.77901,11.58454 10.79126,23.64011 18.23551,27.43793 7.23365,3.69039 10.31358,4.12077 16.45322,2.29914 z m 1.70911,-7.08378 c -0.60825,-1.58507 1.0457,-4.23461 2.47196,-3.95994 0.82091,0.15809 1.22366,0.95048 1.22366,2.40752 0,1.69987 -0.35632,2.22245 -1.63962,2.40468 -0.95381,0.13544 -1.81378,-0.22104 -2.056,-0.85226 z m -16.97998,-1.82946 c -1.07274,-2.00444 -0.20649,-3.85833 1.67726,-3.58956 1.17973,0.16833 1.54379,0.73245 1.54379,2.39213 0,2.61155 -2.05532,3.37561 -3.22105,1.19743 z m 7.50435,-14.95276 c -0.79,-2.05872 0.0294,-4.41653 1.53488,-4.41653 1.06384,0 1.51903,0.56487 1.69461,2.1029 0.31589,2.76727 -2.32845,4.6617 -3.22949,2.31363 z m 19.42648,-5.78261 c -0.57095,-0.68795 -0.61296,-1.57844 -0.13391,-2.83844 0.8488,-2.23252 1.74118,-2.85122 3.26759,-2.26548 1.46848,0.56351 1.47853,2.41392 0.0244,4.49 -1.31171,1.87272 -2.002,2.00691 -3.15808,0.61392 z m -37.18609,-8.14571 c -0.99243,-2.61029 0.047,-5.76093 1.90055,-5.76093 1.18737,0 1.39394,0.5374 1.39394,3.6264 0,2.87319 -0.2639,3.67723 -1.27061,3.8711 -0.83667,0.16113 -1.52785,-0.43193 -2.02388,-1.73657 z m 53.37352,-2.13018 c -0.51826,-1.35058 1.58852,-4.72166 2.95083,-4.72166 1.46605,0 1.95783,1.94087 1.01571,4.00862 -0.9107,1.99874 -3.30781,2.42965 -3.96654,0.71304 z m -21.26837,-3.213 c -1.53232,-0.95095 -0.42753,-4.41775 1.40784,-4.41775 0.80494,0 1.66235,0.51816 1.90538,1.15147 0.59802,1.55842 -1.97612,4.09609 -3.31322,3.26628 z m -12.68944,-4.9026 c -0.26667,-0.26667 -0.48485,-1.25876 -0.48485,-2.20464 0,-2.06299 1.91451,-2.99869 3.2569,-1.59178 1.80806,1.89495 -0.92732,5.64115 -2.77205,3.79642 z m 28.13963,-8.61163 c -0.52488,-1.3679 1.59591,-4.7217 2.98573,-4.7217 1.64411,0 2.05428,1.3737 1.09888,3.6803 -0.95617,2.3083 -3.36295,2.922 -4.08461,1.0414 z m -41.39172,-2.8038 c -0.71348,-2.8427 0.23718,-4.827 2.31261,-4.827 1.68081,0 1.79491,0.2222 1.58735,3.0909 -0.18475,2.5535 -0.50366,3.1307 -1.83429,3.32 -1.20513,0.1713 -1.72522,-0.2275 -2.06567,-1.5839 z m 23.97332,-6.5566 c -0.58864,-1.534 0.2376,-2.634 1.97833,-2.634 1.09871,0 1.40443,0.4049 1.2298,1.6289 -0.27122,1.9011 -2.58602,2.6263 -3.20813,1.0051 z"
         id="path36711" />
      <path
         style="fill:#b25552;stroke-width:0.727273"
         d="m 638.2075,-933.7892 c -9.36235,-1.57027 -22.29433,-9.06967 -30.0348,-17.41749 -4.88546,-5.26881 -11.19642,-15.13549 -13.65253,-21.34464 -2.88385,-7.29052 -3.34163,-16.03722 -1.1794,-22.53471 1.62624,-4.88685 6.3929,-12.15016 10.53002,-16.04546 l 2.2374,-2.1066 -3.07677,-1.3121 c -4.63474,-1.9765 -7.74401,-4.3148 -11.03809,-8.3011 -3.33837,-4.0399 -3.63293,-5.5167 -1.5215,-7.6281 2.56102,-2.561 11.51446,-1.7779 19.63636,1.7175 0.91821,0.3952 1.09731,-0.4884 1.13135,-5.5817 0.0483,-7.2234 2.33654,-13.0483 5.29029,-13.4667 2.08956,-0.296 6.866,4.5783 7.8506,8.0114 0.36223,1.263 1.0206,2.4171 1.46306,2.5646 0.44244,0.1475 2.52482,-1.2004 4.6275,-2.9952 5.1207,-4.3709 8.43618,-5.9103 10.85674,-5.0406 1.73746,0.6242 1.85418,0.948 1.63109,4.5257 -0.21159,3.3931 -0.95407,6.7856 -2.6706,12.2022 -0.48225,1.5218 -0.35433,1.5605 3.88423,1.1762 2.4106,-0.2186 7.09462,0.024 10.40894,0.54 5.02468,0.7816 6.5881,1.3717 9.40847,3.5511 4.33428,3.3492 6.35219,6.6984 9.68874,16.0808 5.00061,14.06174 5.72531,21.45719 3.39315,34.62674 -2.68979,15.1891 -5.17852,21.83253 -11.20667,29.91517 -5.49362,7.36595 -16.17507,10.78887 -27.65758,8.86299 z m 15.98225,-5.52244 c 4.49596,-1.48723 7.66581,-4.44959 11.17181,-10.4405 3.19359,-5.45709 5.0967,-11.50541 7.32277,-23.27273 2.03228,-10.74293 1.65373,-17.92319 -1.46475,-27.78303 -5.99294,-18.9482 -9.54808,-22.0898 -24.85278,-21.9624 -6.7689,0.056 -7.99176,0.2614 -9.73444,1.6322 -1.09618,0.8623 -1.71714,1.5678 -1.37991,1.5678 0.33722,0 -0.81831,1.4585 -2.56785,3.2412 -1.74955,1.7826 -3.45405,3.0724 -3.78779,2.8661 -0.33374,-0.2062 -0.6068,-0.061 -0.6068,0.3234 0,0.3841 -1.19747,1.4049 -2.66105,2.2684 -2.55097,1.5051 -2.93201,1.5317 -9.21097,0.643 l -6.54991,-0.927 -4.32308,4.7015 c -2.3777,2.5859 -5.35094,6.82883 -6.60722,9.42883 -2.06013,4.26369 -2.27934,5.36916 -2.23529,11.27273 0.0413,5.5393 0.3946,7.41675 2.2982,12.21366 6.88074,17.3389 23.2644,31.96282 39.69162,35.42839 3.9512,0.83357 10.99645,0.28734 15.49744,-1.20155 z m -9.90091,-5.71463 c -0.80797,-0.97355 -0.78186,-1.34544 0.16062,-2.28792 0.90475,-0.90475 1.43581,-0.95927 2.70867,-0.27806 0.8809,0.47144 1.47985,1.39018 1.35014,2.07099 -0.31117,1.63333 -3.01175,1.95014 -4.21943,0.49499 z m 15.44058,-8.48646 c -1.23612,-1.23613 -1.12033,-3.47093 0.20621,-3.97997 1.54307,-0.59213 3.3758,1.13798 3.11675,2.94222 -0.25329,1.76407 -2.03898,2.32173 -3.32296,1.03775 z m -41.22759,-7.97276 c -2.19839,-2.61263 -2.16637,-4.53049 0.081,-4.85243 1.04279,-0.14939 2.05272,0.48288 3.08347,1.93045 1.82569,2.56393 1.95364,4.1564 0.3824,4.75933 -1.5854,0.60838 -1.4144,0.69696 -3.54688,-1.83735 z m 22.47693,0.0544 c -1.01447,-1.12097 -1.16678,-1.79531 -0.60622,-2.68398 1.19993,-1.90228 2.2832,-1.8602 3.59351,0.13959 0.9867,1.50589 1.04877,2.07726 0.32094,2.95425 -1.19225,1.43656 -1.69344,1.37448 -3.30823,-0.40986 z m 11.23659,-17.23014 c -1.48236,-3.87075 1.80517,-5.84125 3.57716,-2.14411 0.764,1.59402 0.78633,2.26702 0.10257,3.09091 -1.35458,1.63216 -2.83828,1.2504 -3.67973,-0.9468 z m -41.08919,-2.19296 c -1.74855,-1.16754 -2.45598,-3.55165 -1.45859,-4.91565 1.18192,-1.61639 2.69384,-1.1122 4.0036,1.33511 1.57157,2.93652 -0.0638,5.23729 -2.54501,3.58054 z m 15.87599,-0.2949 c -1.19552,-1.19552 -1.12724,-2.41316 0.19695,-3.51214 1.4565,-1.2088 3.43049,0.35371 3.12601,2.47438 -0.25329,1.76408 -2.03898,2.32174 -3.32296,1.03776 z m 12.95322,-3.84084 c -1.27044,-1.53079 -0.62822,-3.63546 1.1887,-3.89552 1.89407,-0.27111 2.9897,2.29622 1.66243,3.89548 -1.10438,1.3307 -1.74677,1.33071 -2.85113,4e-5 z m 19.63295,-11.25986 c -1.0707,-2.00062 -0.9318,-3.66115 0.34731,-4.15201 1.64048,-0.6295 3.26347,1.0942 3.26347,3.46598 0,1.59543 -0.33959,2.09277 -1.42896,2.09277 -0.78593,0 -1.76775,-0.63303 -2.18182,-1.40674 z m -34.27357,-5.58211 c -0.72438,-0.8728 -0.67746,-1.3065 0.24067,-2.2246 1.33325,-1.3333 2.73459,-0.7293 2.73459,1.1786 0,1.7646 -1.84157,2.412 -2.97526,1.046 z m 18.97766,-4.2776 c -0.88159,-2.3187 -0.23057,-4.0063 1.54555,-4.0063 1.58928,0 3.22423,2.9773 2.57048,4.6809 -0.69461,1.8101 -3.33593,1.3773 -4.11603,-0.6746 z m -26.18422,-8.9881 c 0,-0.34 -0.93948,-1.915 -2.08772,-3.5001 -3.87546,-5.35 -12.61242,-9.6999 -19.48241,-9.6999 -4.09933,0 -4.08938,1.1373 0.0433,4.9466 4.14555,3.8213 7.86526,5.6759 14.80517,7.382 6.73139,1.6548 6.72168,1.6536 6.72168,0.8714 z m 9.3335,-2.7197 c 5.54201,-4.7437 10.60569,-13.4765 11.4337,-19.7184 0.47955,-3.615 0.43676,-3.7462 -1.09104,-3.3467 -0.87459,0.2287 -3.36559,2.0385 -5.53557,4.0218 -4.68024,4.2774 -8.85609,12.0919 -9.53095,17.8357 -0.55477,4.7217 0.34864,4.9527 4.72386,1.2076 z m -7.87185,-5.9348 c 0.004,-0.7 0.79803,-2.9715 1.76472,-5.0478 l 1.75761,-3.775 -1.45885,-3.8613 c -1.72926,-4.5771 -4.22195,-7.6268 -5.09447,-6.2328 -0.31566,0.5043 -0.94301,2.683 -1.39414,4.8415 -1.28155,6.1321 1.0023,15.3481 3.80347,15.3481 0.338,0 0.61776,-0.5727 0.62166,-1.2727 z m 145.81107,87.24716 c -1.44931,-0.23044 -2.81038,-0.76304 -7.62957,-2.98553 -3.90921,-1.80283 -10.50356,-8.75908 -13.00966,-13.72364 -4.20749,-8.33499 -5.54966,-14.61706 -5.47564,-25.62894 0.0363,-5.4 0.42234,-11.12727 0.85786,-12.72727 2.51548,-9.24128 3.29392,-11.44238 5.9156,-16.72728 3.86391,-7.789 9.07587,-13.5219 14.82724,-16.3092 5.59023,-2.7092 12.992,-4.0141 19.61815,-3.4586 4.94575,0.4146 5.03706,0.391 4.5587,-1.1773 -1.42081,-4.6581 -1.80817,-7.1261 -1.79221,-11.4185 0.0355,-9.5371 4.0752,-12.8381 9.37633,-7.6617 2.66683,2.6041 6.06938,8.9957 6.92014,12.9992 l 0.43878,2.0649 3.28291,-3.0261 c 3.6858,-3.3974 9.83289,-6.5403 12.81306,-6.551 1.28342,0 2.26855,0.5424 2.81485,1.5632 1.16005,2.1676 0.3773,7.7838 -1.53706,11.0284 -1.75999,2.9829 -1.75359,2.9894 3.65689,3.7248 5.56128,0.7558 10.15167,2.5907 11.45418,4.5786 1.19703,1.8269 1.17215,1.8969 -1.49309,4.2008 -2.68264,2.319 -6.8068,4.6079 -11.07749,6.148 l -2.20731,0.796 3.39164,3.5188 c 1.8654,1.9353 4.74051,5.7892 6.38913,8.56425 2.71182,4.56468 2.99748,5.51007 2.99748,9.92023 0,5.6033 -0.95896,8.03037 -7.41238,18.76034 -5.20834,8.65981 -12.19232,16.30224 -18.59017,20.34285 -6.07411,3.83614 -17.54744,9.57902 -22.34577,11.18498 -3.59843,1.20438 -13.96074,2.44203 -16.74259,1.99971 z m 12.13789,-5.34472 c 8.84307,-1.8965 26.28431,-11.63185 32.95302,-18.39372 4.48848,-4.55118 13.20681,-18.16898 14.88229,-23.24574 2.10962,-6.39219 -0.64451,-13.42316 -8.33683,-21.28298 l -5.09091,-5.2017 -5.21201,0.3214 c -3.04012,0.1875 -5.39855,0.02 -5.65966,-0.4028 -0.2462,-0.3984 -0.92807,-0.54 -1.51526,-0.3146 -0.58719,0.2253 -1.06785,0.1292 -1.06813,-0.2136 -2.8e-4,-0.3428 -0.83758,-0.6717 -1.86064,-0.7308 -2.0573,-0.1189 -4.87156,-2.2739 -4.26059,-3.2624 0.21417,-0.3466 0.0636,-0.6301 -0.33463,-0.6301 -0.39822,0 -1.64481,-1.7182 -2.77019,-3.8182 l -2.04616,-3.8181 -5.43657,-0.6654 c -6.62941,-0.8114 -13.81837,0.2584 -18.84164,2.8039 -12.84412,6.5086 -21.82859,29.84849 -19.0537,49.49781 1.88181,13.32531 6.77533,21.8261 16.08062,27.93444 2.80371,1.84046 3.97221,2.14206 8.48822,2.19083 2.88031,0.0311 6.96756,-0.31461 9.08277,-0.76824 z m -3.04698,-5.94466 c 0,-0.97885 0.50733,-2.20077 1.12741,-2.71539 0.93179,-0.77332 1.33977,-0.72331 2.35131,0.28824 1.50087,1.50086 0.47996,3.6179 -1.91663,3.97445 -1.23569,0.18384 -1.56209,-0.13946 -1.56209,-1.5473 z m -16.24242,-3.89722 c -0.85965,-0.85964 -0.51651,-2.94713 0.64256,-3.90908 1.57214,-1.30476 3.5885,0.68374 2.89833,2.85829 -0.4657,1.46729 -2.51596,2.07572 -3.54089,1.05079 z m 10.39368,-13.73379 c -0.70371,-0.84792 -0.71924,-1.51707 -0.0684,-2.94559 1.09679,-2.40719 3.29205,-2.05562 3.59705,0.57608 0.28679,2.47444 -2.10737,4.0821 -3.52869,2.36951 z m 20.00501,-1.8227 c -0.81241,-1.31451 0.32141,-4.20276 1.83892,-4.6844 2.94823,-0.93573 4.0493,2.01824 1.58391,4.24939 -1.52943,1.38411 -2.74108,1.5381 -3.42283,0.43501 z m 18.55818,-5.78477 c -0.78435,-0.48475 -0.85707,-1.11221 -0.30942,-2.66946 1.19963,-3.4111 5.43139,-2.99902 4.34523,0.42314 -0.61333,1.93245 -2.68128,3.08347 -4.03581,2.24632 z m -53.47088,-8.76653 c -0.69317,-1.12158 0.26309,-5.48524 1.41077,-6.43774 0.53872,-0.44709 1.54601,-0.5955 2.23843,-0.32979 1.02179,0.39209 1.17115,1.03215 0.79288,3.39772 -0.25634,1.60304 -0.63706,3.1913 -0.84605,3.52945 -0.53963,0.87313 -3.02596,0.76276 -3.59603,-0.15964 z m 32.43138,-0.26996 c -0.6434,-0.77524 -0.65975,-1.43128 -0.0635,-2.54546 0.95,-1.77509 2.39862,-1.93148 3.67256,-0.39648 0.75019,0.90392 0.67984,1.36628 -0.3873,2.54546 -1.55326,1.71633 -2.07331,1.78033 -3.2218,0.39648 z m -10.99827,-7.38018 c -1.20183,-1.44811 -0.0487,-3.5754 1.93808,-3.5754 1.6307,0 2.22261,2.18924 0.99261,3.6713 -1.12161,1.35145 -1.74647,1.33101 -2.93069,-0.0959 z m 29.1415,-2.73541 c 0,-0.938 0.64841,-2.29226 1.44091,-3.00946 1.17917,-1.06715 1.64153,-1.1375 2.54545,-0.38731 1.46444,1.21538 1.39403,2.43301 -0.22544,3.89861 -1.96073,1.77443 -3.76092,1.53423 -3.76092,-0.50184 z m -39.86023,-9.74912 c -1.11278,-2.2175 0.0554,-4.8827 2.25263,-5.1392 1.70248,-0.1987 1.97124,0.031 1.97124,1.6842 0,3.9783 -2.80847,6.27557 -4.22387,3.455 z m 24.85237,-2.7224 c -0.2519,-0.6564 -0.10927,-1.5422 0.31696,-1.9685 1.10808,-1.108 3.20757,-0.095 2.91812,1.4077 -0.3224,1.6741 -2.65284,2.0781 -3.23508,0.5608 z m 25.55332,-9.8151 c 4.09569,-0.6673 13.45454,-4.7143 13.45454,-5.8182 0,-2.145 -10.94675,-3.5269 -17.60001,-2.2217 -5.05398,0.9914 -11.92912,4.0479 -12.50999,5.5616 -1.02408,2.6688 7.60531,3.9528 16.65546,2.4783 z m -18.42554,-14.2619 c -0.0745,-5.2735 -1.69108,-10.4138 -4.60888,-14.6551 -2.6177,-3.8051 -4.01218,-3.945 -4.66448,-0.4679 -1.12358,5.9892 1.09231,14.5812 5.67129,21.9901 l 1.59172,2.5755 1.03653,-2.5034 c 0.57009,-1.3769 1.0083,-4.4995 0.97382,-6.9392 z m 10.38586,2.8386 c 2.02182,-0.6436 4.02873,-1.4408 4.45979,-1.7715 1.07468,-0.8246 4.6708,-8.2746 4.6708,-9.6764 0,-2.9989 -8.38467,1.2476 -12.58526,6.3738 -2.89769,3.5363 -3.77965,7.6097 -1.45442,6.7174 0.67817,-0.2602 2.88726,-0.9997 4.90909,-1.6433 z m -323.96031,82.28948 c -18.72649,-5.19765 -31.13442,-29.08742 -28.38253,-54.64671 1.60291,-14.88777 6.63021,-25.52757 14.56435,-30.82407 5.16664,-3.4491 11.45173,-5.7365 17.2495,-6.2779 2.54003,-0.2372 4.50957,-0.6284 4.37677,-0.8693 -3.24728,-5.8898 -4.46256,-9.6703 -4.75993,-14.8072 -0.27362,-4.7265 -0.1121,-5.9096 0.96995,-7.1053 2.56567,-2.835 6.27595,-1.3575 11.81787,4.7063 2.0264,2.2172 4.06835,5.1947 4.53765,6.6167 l 0.85328,2.5855 2.01619,-3.1792 c 1.9572,-3.0862 6.74925,-7.483 9.98181,-9.1586 4.51297,-2.3393 7.16397,0.4874 6.56507,7 -0.21124,2.2971 -0.60784,4.8823 -0.88131,5.7448 -0.48448,1.5281 -0.30164,1.5747 7.13173,1.8182 6.25307,0.2049 7.90472,0.4998 9.15792,1.6354 0.84092,0.762 1.52895,1.954 1.52895,2.6489 0,1.5295 -8.02503,9.1089 -11.29591,10.6686 l -2.34523,1.1184 4.44389,3.0411 c 2.44414,1.6726 6.11344,5.0068 8.15401,7.4092 3.03803,3.5769 3.86757,5.1686 4.57942,8.7868 1.00358,5.1011 0.66556,7.09279 -3.08357,18.16942 -4.27867,12.64115 -6.98784,17.07176 -15.70323,25.68123 -16.11917,15.92328 -30.08315,22.40006 -41.47665,19.23773 z m 11.68618,-4.40975 c 7.78849,-2.31084 11.92486,-4.87752 22.92198,-14.22343 10.47019,-8.8981 13.83656,-14.00679 18.84899,-28.60455 3.18512,-9.27605 3.50139,-13.81545 1.26763,-18.19395 -1.80387,-3.5359 -8.02222,-9.5338 -12.75738,-12.3052 -3.31143,-1.9381 -3.69621,-2.001 -7.63636,-1.2496 -2.28208,0.4353 -6.54203,0.6904 -9.46658,0.567 l -5.31734,-0.2243 -4.22234,-4.4788 c -4.16427,-4.4172 -4.27659,-4.4788 -8.16622,-4.4788 -4.63135,0 -11.08788,1.5597 -15.25304,3.6846 -7.16552,3.6556 -11.99223,10.7019 -14.91233,21.77 -1.67707,6.35661 -1.67485,21.00047 0.004,27.99996 2.77901,11.58454 10.79126,23.64011 18.23551,27.43793 7.23365,3.69039 10.31358,4.12077 16.45322,2.29914 z m 1.70911,-7.08378 c -0.60825,-1.58507 1.0457,-4.23461 2.47196,-3.95994 0.82091,0.15809 1.22366,0.95048 1.22366,2.40752 0,1.69987 -0.35632,2.22245 -1.63962,2.40468 -0.95381,0.13544 -1.81378,-0.22104 -2.056,-0.85226 z m -16.97998,-1.82946 c -1.07274,-2.00444 -0.20649,-3.85833 1.67726,-3.58956 1.17973,0.16833 1.54379,0.73245 1.54379,2.39213 0,2.61155 -2.05532,3.37561 -3.22105,1.19743 z m 7.50435,-14.95276 c -0.79,-2.05872 0.0294,-4.41653 1.53488,-4.41653 1.06384,0 1.51903,0.56487 1.69461,2.1029 0.31589,2.76727 -2.32845,4.6617 -3.22949,2.31363 z m 19.42648,-5.78261 c -0.57095,-0.68795 -0.61296,-1.57844 -0.13391,-2.83844 0.8488,-2.23252 1.74118,-2.85122 3.26759,-2.26548 1.46848,0.56351 1.47853,2.41392 0.0244,4.49 -1.31171,1.87272 -2.002,2.00691 -3.15808,0.61392 z m -37.18609,-8.14571 c -0.99243,-2.61029 0.047,-5.76093 1.90055,-5.76093 1.18737,0 1.39394,0.5374 1.39394,3.6264 0,2.87319 -0.2639,3.67723 -1.27061,3.8711 -0.83667,0.16113 -1.52785,-0.43193 -2.02388,-1.73657 z m 53.37352,-2.13018 c -0.51826,-1.35058 1.58852,-4.72166 2.95083,-4.72166 1.46605,0 1.95783,1.94087 1.01571,4.00862 -0.9107,1.99874 -3.30781,2.42965 -3.96654,0.71304 z m -21.26837,-3.213 c -1.53232,-0.95095 -0.42753,-4.41775 1.40784,-4.41775 0.80494,0 1.66235,0.51816 1.90538,1.15147 0.59802,1.55842 -1.97612,4.09609 -3.31322,3.26628 z m -12.68944,-4.9026 c -0.26667,-0.26667 -0.48485,-1.25876 -0.48485,-2.20464 0,-2.06299 1.91451,-2.99869 3.2569,-1.59178 1.80806,1.89495 -0.92732,5.64115 -2.77205,3.79642 z m 28.13963,-8.61163 c -0.52488,-1.3679 1.59591,-4.7217 2.98573,-4.7217 1.64411,0 2.05428,1.3737 1.09888,3.6803 -0.95617,2.3083 -3.36295,2.922 -4.08461,1.0414 z m -41.39172,-2.8038 c -0.71348,-2.8427 0.23718,-4.827 2.31261,-4.827 1.68081,0 1.79491,0.2222 1.58735,3.0909 -0.18475,2.5535 -0.50366,3.1307 -1.83429,3.32 -1.20513,0.1713 -1.72522,-0.2275 -2.06567,-1.5839 z m 23.97332,-6.5566 c -0.58864,-1.534 0.2376,-2.634 1.97833,-2.634 1.09871,0 1.40443,0.4049 1.2298,1.6289 -0.27122,1.9011 -2.58602,2.6263 -3.20813,1.0051 z m 16.51283,-12.815 c 5.20157,-0.9645 13.50367,-5.1101 16.55659,-8.2675 l 2.45733,-2.5414 -2.78001,-0.5215 c -4.16076,-0.7806 -12.28125,0.7517 -17.43817,3.2904 -4.58566,2.2576 -9.46071,6.8026 -8.66956,8.0827 0.55013,0.8901 4.94568,0.8711 9.87382,-0.043 z m -14.236,-12.966 c -1.94122,-6.1948 -3.56388,-8.9669 -7.22355,-12.3403 -3.88443,-3.5805 -4.80894,-3.7846 -4.79346,-1.0582 0.0369,6.4892 2.79026,12.6455 9.00724,20.1391 l 2.9814,3.5937 0.66061,-3.1043 c 0.50712,-2.3829 0.36022,-4.0628 -0.63224,-7.23 z m 7.2529,3.4968 c 0.25192,-0.4076 2.01872,-1.532 3.92622,-2.4986 2.80594,-1.4219 3.69228,-2.3566 4.64184,-4.8952 1.16121,-3.1046 1.57397,-5.562 1.35469,-8.0656 -0.10342,-1.1808 -0.28904,-1.2004 -2.16776,-0.2289 -5.34183,2.7624 -12.07629,13.6924 -9.82413,15.9445 0.70045,0.7005 1.5423,0.5962 2.06914,-0.2562 z"
         id="path36709" />
      <path
         style="fill:#41893d;stroke-width:0.727273"
         d="m 633.38092,-935.49225 c -9.31983,-3.20275 -17.1005,-7.92255 -22.8332,-13.85074 -13.26997,-13.72248 -20.50236,-30.72029 -17.88593,-42.03608 1.42682,-6.17081 4.95053,-12.57093 9.53023,-17.30973 l 4.25199,-4.3997 -3.26031,-1.3975 c -4.82529,-2.0684 -7.86398,-4.3399 -11.19037,-8.3653 -3.33837,-4.0399 -3.63293,-5.5167 -1.5215,-7.6281 2.56102,-2.561 11.51446,-1.7779 19.63636,1.7175 0.91821,0.3952 1.09731,-0.4884 1.13135,-5.5817 0.0483,-7.2234 2.33654,-13.0483 5.29029,-13.4667 2.08956,-0.296 6.866,4.5783 7.8506,8.0114 0.36223,1.263 1.0206,2.4171 1.46306,2.5646 0.44244,0.1475 2.52482,-1.2004 4.6275,-2.9952 5.1207,-4.3709 8.43618,-5.9103 10.85674,-5.0406 1.73746,0.6242 1.85418,0.948 1.63109,4.5257 -0.21181,3.3965 -0.94633,6.7515 -2.67657,12.2251 -0.49335,1.5607 -0.36052,1.5968 5.93337,1.6135 16.47198,0.044 21.17445,3.5011 26.93041,19.7994 1.74633,4.9448 3.3242,9.8088 3.50636,10.8088 0.18217,1 0.59941,3.29091 0.9272,5.09091 1.6155,8.87127 -2.23592,31.07621 -7.04125,40.59552 -2.48663,4.92599 -7.63771,11.66525 -9.38942,12.28438 -0.6724,0.23766 -1.72303,0.8586 -2.33473,1.37989 -1.91547,1.63234 -9.50899,3.19718 -15.22244,3.13696 -3.64952,-0.0385 -7.06464,-0.60113 -10.21083,-1.68231 z m 19.82387,-3.09799 c 5.34339,-1.49927 9.3946,-5.33201 13.0707,-12.36578 4.6171,-8.83428 7.92013,-23.55604 7.86996,-35.0768 -0.0267,-6.11991 -0.37127,-7.84825 -3.33098,-16.70558 -4.24483,-12.7033 -5.75264,-15.2456 -10.65184,-17.9594 -3.72194,-2.0618 -4.23453,-2.1452 -13.17384,-2.1452 h -9.30122 l -3.59356,4.0968 c -1.97646,2.2532 -5.25203,5.161 -7.27905,6.4618 -3.87318,2.4854 -5.18918,2.5826 -13.88365,1.026 -2.40251,-0.4301 -2.91107,-0.1953 -5.84625,2.6994 -6.57589,6.4852 -10.35356,13.35378 -11.14368,20.2614 -1.44306,12.61592 9.90045,32.39066 24.09204,41.99883 12.22176,8.27454 22.57743,10.68104 33.17137,7.70853 z m -8.19299,-6.44123 c -0.6866,-0.82731 -0.73055,-1.36646 -0.15804,-1.93897 1.1033,-1.1033 3.23052,-0.13695 2.94455,1.33765 -0.32659,1.68399 -1.6508,1.96975 -2.78651,0.60132 z m 15.05094,-8.82673 c -1.12035,-1.12036 -0.47084,-3.16667 1.00512,-3.16667 1.13129,0 1.44741,0.39229 1.27273,1.5794 -0.24135,1.64021 -1.41033,2.45479 -2.27785,1.58727 z m -41.10051,-7.759 c -1.74384,-1.85624 -2.04564,-3.76213 -0.72496,-4.57835 0.51121,-0.31595 1.66099,0.4346 2.85287,1.86227 3.11009,3.72538 1.15941,6.21526 -2.12791,2.71608 z m 22.56934,0.0884 c -1.32944,-1.32943 -1.05199,-2.76883 0.5337,-2.76883 1.91168,0 2.62573,1.36525 1.37054,2.62044 -0.80163,0.80162 -1.21853,0.83411 -1.90424,0.14839 z m 11.51471,-16.91571 c -1.02909,-1.23997 -0.76272,-3.42755 0.46722,-3.83704 1.08734,-0.36202 2.65614,2.48277 2.12806,3.85893 -0.50833,1.3247 -1.48456,1.31646 -2.59528,-0.0219 z m -42.79263,-3.45312 c -1.45452,-1.45451 -1.08431,-4.21818 0.56505,-4.21818 1.61564,0 4.03177,3.1626 3.30926,4.33165 -0.63315,1.02447 -2.79984,0.96101 -3.87431,-0.11347 z m 16.85818,-0.18335 c -0.50663,-1.32026 0.22924,-2.58028 1.50693,-2.58028 1.10251,0 2.06546,1.97705 1.44887,2.97472 -0.63569,1.02856 -2.5055,0.77904 -2.9558,-0.39444 z m 12.81454,-4.81542 c 0,-1.86375 2.40715,-1.65232 2.77225,0.24349 0.16807,0.87272 -0.22358,1.26437 -1.26438,1.26437 -1.04079,0 -1.50787,-0.46707 -1.50787,-1.50786 z m 19.89937,-9.76486 c -0.51442,-1.34054 0.16048,-3.27273 1.14313,-3.27273 0.99107,0 2.40095,2.77176 1.85731,3.6514 -0.67015,1.08431 -2.52907,0.84971 -3.00044,-0.37867 z m -15.19533,-9.89134 c -0.26669,-0.8403 -0.14711,-1.8656 0.26574,-2.2784 1.21071,-1.2107 3.03022,-0.031 3.03022,1.9651 0,2.3303 -2.57802,2.5753 -3.29596,0.3133 z m -26.52222,-8.545 c 0,-0.34 -0.93948,-1.915 -2.08772,-3.5001 -3.87546,-5.35 -12.61242,-9.6999 -19.48241,-9.6999 -4.09933,0 -4.08938,1.1373 0.0433,4.9466 4.14555,3.8213 7.86526,5.6759 14.80517,7.382 6.73139,1.6548 6.72168,1.6536 6.72168,0.8714 z m 9.3335,-2.7197 c 5.54201,-4.7437 10.60569,-13.4765 11.4337,-19.7184 0.47955,-3.615 0.43676,-3.7462 -1.09104,-3.3467 -0.87459,0.2287 -3.36559,2.0385 -5.53557,4.0218 -4.68024,4.2774 -8.85609,12.0919 -9.53095,17.8357 -0.55477,4.7217 0.34864,4.9527 4.72386,1.2076 z m -7.87185,-5.9348 c 0.004,-0.7 0.79803,-2.9715 1.76472,-5.0478 l 1.75761,-3.775 -1.45885,-3.8613 c -1.72926,-4.5771 -4.22195,-7.6268 -5.09447,-6.2328 -0.31566,0.5043 -0.94301,2.683 -1.39414,4.8415 -1.28155,6.1321 1.0023,15.3481 3.80347,15.3481 0.338,0 0.61776,-0.5727 0.62166,-1.2727 z m 139.62926,84.48353 c -6.72112,-3.66861 -11.10843,-8.26183 -14.50269,-15.18336 -4.42598,-9.02538 -6.5368,-22.12063 -5.01676,-31.12331 0.87995,-5.21163 2.78153,-13.68044 3.46905,-15.44966 2.26323,-5.8239 6.73896,-13.4412 10.0432,-17.0925 4.26059,-4.7081 10.39185,-8.167 16.13034,-9.0999 4.26943,-0.694 14.223,-0.6744 15.36327,0.03 0.94912,0.5866 0.91664,0.3123 -0.69119,-5.8378 -0.41829,-1.6 -0.75261,-5.0364 -0.74294,-7.6364 0.0355,-9.5371 4.0752,-12.8381 9.37633,-7.6617 2.66683,2.6041 6.06938,8.9957 6.92014,12.9993 l 0.43878,2.0648 3.28291,-3.0261 c 3.6858,-3.3974 9.83289,-6.5403 12.81306,-6.551 1.28342,0 2.26855,0.5425 2.81485,1.5633 1.16005,2.1675 0.3773,7.7837 -1.53706,11.0283 -1.75999,2.983 -1.75359,2.9895 3.65689,3.7248 5.56128,0.7558 10.15167,2.5907 11.45418,4.5786 1.19703,1.8269 1.17215,1.8969 -1.49309,4.2008 -2.70874,2.3416 -6.76821,4.586 -11.24607,6.2178 l -2.37587,0.8659 3.15122,3.3689 c 7.68539,8.21627 10.47856,15.12114 9.12613,22.56024 -0.71157,3.91398 -1.15477,4.85991 -6.33482,13.52056 -7.23191,12.0912 -12.16016,17.11306 -23.00896,23.44596 -14.00058,8.17274 -21.01854,10.6529 -30.90909,10.92334 -5.01576,0.13715 -5.83482,-0.0584 -10.18181,-2.43115 z m 21.75017,-3.23024 c 4.93063,-1.63466 16.17047,-7.32177 22.24982,-11.25793 7.44616,-4.82111 13.13394,-11.8122 20.05712,-24.65307 2.55157,-4.73254 3.09576,-6.42913 3.07909,-9.59939 -0.0274,-5.21678 -2.72004,-10.5127 -8.54223,-16.8012 l -4.6356,-5.0069 -5.3604,-0.081 c -10.70104,-0.1621 -14.66558,-2.3162 -18.64568,-10.1311 -1.81882,-3.5713 -3.08677,-4.0077 -11.55205,-3.9763 -10.15849,0.038 -16.84955,2.6877 -22.18434,8.7862 -10.89969,12.46 -15.45272,35.48554 -10.28494,52.01298 1.75213,5.60362 4.45131,10.82027 7.352,14.20909 2.63216,3.07507 8.72491,7.43881 11.45688,8.20562 2.79415,0.78427 12.40536,-0.18012 17.01033,-1.7068 z m -5.62742,-5.91594 c 0.13249,-0.93558 0.73179,-1.70106 1.33179,-1.70106 1.57726,0 1.35999,2.83735 -0.24088,3.14565 -1.03277,0.1989 -1.2777,-0.12545 -1.09091,-1.44459 z m -16.72727,-5.09091 c 0.13249,-0.93558 0.73179,-1.70106 1.33179,-1.70106 1.57726,0 1.35998,2.83735 -0.24088,3.14565 -1.03277,0.1989 -1.2777,-0.12544 -1.09091,-1.44459 z m 10.1903,-13.87544 c 0.34487,-2.41728 2.77785,-2.62973 2.77785,-0.24258 0,1.40762 -0.37307,1.87151 -1.50513,1.87151 -1.14316,0 -1.44923,-0.39174 -1.27272,-1.62893 z m 20.36591,-1.8194 c 0.1457,-1.26234 0.73177,-2.08902 1.59752,-2.25337 1.96527,-0.3731 2.80057,1.40157 1.39218,2.95781 -1.79339,1.98168 -3.25985,1.63615 -2.9897,-0.70444 z m 18.32334,-4.88395 c -0.66041,-1.721 0.24224,-3.30409 1.88396,-3.30409 1.96292,0 1.97149,2.59347 0.012,3.64214 -1.15306,0.6171 -1.5571,0.54506 -1.89599,-0.33805 z m -53.10504,-8.03683 c -0.2314,-0.60302 -0.2063,-2.23938 0.0558,-3.63637 0.35138,-1.87299 0.84981,-2.53998 1.8981,-2.53998 1.1612,0 1.42159,0.50621 1.42159,2.76364 0,3.70286 -2.35173,6.08053 -3.37546,3.41271 z m 32.21853,-0.89808 c -0.2109,-0.34124 -0.11081,-1.0616 0.22243,-1.60078 0.73759,-1.19346 3.1826,-0.42222 2.75289,0.86835 -0.36393,1.09304 -2.43705,1.60338 -2.97532,0.73243 z m -11.25729,-7.63447 c 0.34487,-2.41727 2.77786,-2.62973 2.77786,-0.24257 0,1.40762 -0.37307,1.8715 -1.50513,1.8715 -1.14316,0 -1.44924,-0.39174 -1.27273,-1.62893 z m 29.72916,-0.86565 c -1.12683,-1.35775 1.64762,-4.79628 2.8875,-3.57863 1.01677,0.99854 0.3353,3.59919 -1.08604,4.14461 -0.55553,0.21318 -1.36618,-0.0415 -1.80146,-0.56598 z m -40.46956,-10.86372 c -0.63644,-1.6585 -0.0866,-3.482 1.31642,-4.3656 1.92727,-1.2136 3.22168,0.4462 2.32852,2.9859 -0.78586,2.2345 -2.99588,3.0711 -3.64494,1.3797 z m 50.24553,-12.0883 c 4.09569,-0.6673 13.45454,-4.7143 13.45454,-5.8182 0,-2.145 -10.94675,-3.5269 -17.60001,-2.2217 -5.05398,0.9914 -11.92912,4.0479 -12.50999,5.5616 -1.02408,2.6688 7.60531,3.9528 16.65546,2.4783 z m -18.42554,-14.2619 c -0.0745,-5.2735 -1.69108,-10.4138 -4.60888,-14.6551 -2.6177,-3.8051 -4.01218,-3.945 -4.66448,-0.4679 -1.12358,5.9892 1.09231,14.5812 5.67129,21.9901 l 1.59172,2.5755 1.03653,-2.5034 c 0.57009,-1.3769 1.0083,-4.4995 0.97382,-6.9392 z m 10.38586,2.8386 c 2.02182,-0.6436 4.02873,-1.4408 4.45979,-1.7715 1.07468,-0.8246 4.6708,-8.2746 4.6708,-9.6764 0,-2.9989 -8.38467,1.2476 -12.58526,6.3738 -2.89769,3.5363 -3.77965,7.6097 -1.45442,6.7174 0.67817,-0.2602 2.88726,-0.9997 4.90909,-1.6433 z m -323.06566,82.28779 c -4.66742,-1.25658 -7.45064,-2.63817 -12.03625,-5.97478 -6.69874,-4.87418 -13.84156,-17.4316 -16.1736,-28.43399 -1.38551,-6.53676 -1.33086,-20.60952 0.10714,-27.58522 2.36187,-11.4574 8.46316,-20.9071 16.22726,-25.1328 3.84862,-2.0947 13.47228,-4.8365 16.97593,-4.8365 1.16934,0 2.0013,-0.2455 1.84878,-0.5455 -3.79837,-7.4715 -4.48926,-9.6202 -4.79575,-14.9147 -0.27362,-4.7265 -0.1121,-5.9096 0.96995,-7.1053 2.56567,-2.835 6.27595,-1.3575 11.81787,4.7063 2.0264,2.2172 4.06835,5.1947 4.53765,6.6167 l 0.85328,2.5855 2.01619,-3.1792 c 1.9572,-3.0862 6.74925,-7.483 9.98181,-9.1586 4.51297,-2.3393 7.16397,0.4874 6.56507,7 -0.21124,2.2971 -0.60784,4.8823 -0.88131,5.7448 -0.48448,1.5281 -0.30164,1.5747 7.13173,1.8182 6.25307,0.2049 7.90472,0.4998 9.15792,1.6354 0.84092,0.762 1.52895,1.954 1.52895,2.6489 0,1.5463 -8.04015,9.1161 -11.36808,10.703 l -2.41743,1.1528 3.43821,2.3498 c 1.89102,1.2923 5.4382,4.4261 7.88264,6.964 7.53497,7.8229 7.96622,14.0634 2.07278,29.99465 -4.38826,11.86251 -8.60747,18.27346 -16.93714,25.73541 -11.53769,10.33579 -19.5097,15.22329 -28.06827,17.20816 -5.72649,1.32805 -5.51371,1.328 -10.43533,0.003 z m 9.99421,-4.0211 c 7.53966,-1.73734 15.55688,-6.85226 26.64162,-16.99712 7.46416,-6.8313 10.73383,-11.75928 14.59744,-22.00103 5.65078,-14.97914 5.71629,-19.04134 0.41937,-26.00354 -3.25868,-4.2832 -13.6,-11.6261 -15.36702,-10.9114 -2.25406,0.9116 -9.96323,1.6051 -13.77363,1.239 -3.58368,-0.3443 -4.13501,-0.6789 -8.51242,-5.1652 l -4.68057,-4.797 -6.75102,1.1485 c -11.8302,2.0126 -18.81257,6.6844 -23.07999,15.4425 -3.75421,7.7049 -4.7177,12.7293 -4.69175,24.46668 0.0221,10.00587 0.14696,10.90821 2.43942,17.63498 4.3624,12.80056 11.58175,21.57011 20.72851,25.17953 4.1769,1.64826 7.32522,1.84823 12.03004,0.7641 z m 2.92932,-8.69234 c 0,-1.66352 1.91087,-2.72085 2.98182,-1.6499 1.04429,1.04429 -0.0248,3.12727 -1.60509,3.12727 -0.89897,0 -1.37673,-0.51269 -1.37673,-1.47737 z m -17.17818,-1.03326 c -0.51179,-1.33371 0.23308,-2.58028 1.54182,-2.58028 1.49678,0 2.06389,1.37308 1.06447,2.57731 -1.11886,1.34814 -2.08967,1.34924 -2.60629,0.003 z m 7.8339,-14.87555 c -1.32221,-0.81747 -0.76712,-3.26471 0.80938,-3.56831 0.69662,-0.13416 1.47397,0.29655 1.72746,0.95713 0.59511,1.55081 -1.22379,3.423 -2.53684,2.61118 z m 19.13691,-5.92789 c -0.86145,-1.39384 0.34439,-4.32229 1.77978,-4.32229 1.85883,0 2.36279,1.69111 1.05876,3.55287 -1.18632,1.6937 -2.11219,1.94467 -2.83854,0.76942 z m -36.94414,-6.98896 c -0.86207,-0.86207 -0.51858,-5.92763 0.42424,-6.25651 1.90809,-0.66558 2.72727,0.39964 2.72727,3.54644 0,2.61325 -0.24275,3.19492 -1.33333,3.19492 -0.73334,0 -1.55152,-0.21818 -1.81818,-0.48485 z m 53.34446,-3.64639 c 0.0175,-2.07918 1.16885,-3.40247 2.51193,-2.88708 1.81023,0.69465 1.14261,3.68978 -0.8867,3.97799 -1.18546,0.16836 -1.63329,-0.13224 -1.62523,-1.09091 z m -22.02163,-3.57623 c -0.81404,-0.81404 0.34322,-2.47435 1.72467,-2.47435 0.89189,0 1.37674,0.51225 1.37674,1.45454 0,1.38671 -2.05785,2.06337 -3.10141,1.01981 z m -12.6016,-4.93123 c -0.58864,-1.53395 0.2376,-2.63403 1.97833,-2.63403 1.09871,0 1.40443,0.40495 1.2298,1.62893 -0.27122,1.90108 -2.58602,2.62629 -3.20813,1.0051 z m 29.61498,-6.93964 c -1.54043,-0.9521 -0.69629,-4.0241 1.17894,-4.2904 1.31448,-0.1867 1.63636,0.1177 1.63636,1.5473 0,2.1166 -1.48612,3.5646 -2.8153,2.7431 z m -42.13015,-2.3853 c -2.03108,-2.031 -0.11303,-6.374 2.39074,-5.4132 1.95325,0.7495 1.00058,6.286 -1.08165,6.286 -0.24,0 -0.82909,-0.3928 -1.30909,-0.8728 z m 39.93709,-20.2173 c 5.20157,-0.9645 13.50367,-5.1101 16.55659,-8.2675 l 2.45733,-2.5414 -2.78001,-0.5215 c -4.16076,-0.7806 -12.28125,0.7517 -17.43817,3.2904 -4.58566,2.2576 -9.46071,6.8026 -8.66956,8.0827 0.55013,0.8901 4.94568,0.8711 9.87382,-0.043 z m -14.236,-12.966 c -1.94122,-6.1948 -3.56388,-8.9669 -7.22355,-12.3403 -3.88443,-3.5805 -4.80894,-3.7846 -4.79346,-1.0582 0.0369,6.4892 2.79026,12.6455 9.00724,20.1391 l 2.9814,3.5937 0.66061,-3.1043 c 0.50712,-2.3829 0.36022,-4.0628 -0.63224,-7.23 z m 7.2529,3.4968 c 0.25192,-0.4076 2.01872,-1.532 3.92622,-2.4986 2.80594,-1.4219 3.69228,-2.3566 4.64184,-4.8952 1.16121,-3.1046 1.57397,-5.562 1.35469,-8.0656 -0.10342,-1.1808 -0.28904,-1.2004 -2.16776,-0.2289 -5.34183,2.7624 -12.07629,13.6924 -9.82413,15.9445 0.70045,0.7005 1.5423,0.5962 2.06914,-0.2562 z"
         id="path36707" />
      <path
         style="fill:#a13232;stroke-width:0.727273"
         d="m 633.38092,-935.49225 c -9.31983,-3.20275 -17.1005,-7.92255 -22.8332,-13.85074 -13.26997,-13.72248 -20.50236,-30.72029 -17.88593,-42.03608 1.42254,-6.1523 4.95135,-12.57173 9.49549,-17.27373 4.07829,-4.22 4.79982,-4.5266 7.38599,-3.1381 0.28929,0.1553 -0.86879,1.6594 -2.57352,3.3424 -6.46021,6.3779 -10.24371,13.29106 -11.02837,20.1509 -1.10535,9.66352 5.87224,24.92802 16.3125,35.686 3.99877,4.12046 12.5855,9.7687 18.8417,12.39383 11.01399,4.62152 23.29969,3.51825 29.46381,-2.64586 7.73416,-7.73416 13.6584,-26.55822 13.58606,-43.16919 -0.0267,-6.11991 -0.37127,-7.84825 -3.33098,-16.70558 -4.24483,-12.7033 -5.75264,-15.2456 -10.65184,-17.9594 -3.7202,-2.0608 -4.23759,-2.1452 -13.14535,-2.1452 -5.1,0 -9.26545,-0.1637 -9.25655,-0.3637 0.009,-0.2 0.5994,-1.1217 1.31223,-2.0482 1.17762,-1.5307 1.85738,-1.6821 7.43837,-1.657 16.17535,0.073 20.90885,3.5925 26.6347,19.8055 1.74633,4.9448 3.3242,9.8088 3.50636,10.8088 0.18217,1 0.59941,3.29091 0.9272,5.09091 1.6155,8.87127 -2.23592,31.07621 -7.04125,40.59552 -2.48663,4.92599 -7.63771,11.66525 -9.38942,12.28438 -0.6724,0.23766 -1.72303,0.8586 -2.33473,1.37989 -1.91547,1.63234 -9.50899,3.19718 -15.22244,3.13696 -3.64952,-0.0385 -7.06464,-0.60113 -10.21083,-1.68231 z m 125.81818,-3.77629 c -6.72112,-3.66861 -11.10843,-8.26183 -14.50269,-15.18336 -4.42598,-9.02538 -6.5368,-22.12063 -5.01676,-31.12331 0.87995,-5.21163 2.78153,-13.68044 3.46905,-15.44969 4.41875,-11.3707 11.32648,-20.1813 18.46227,-23.5481 5.29069,-2.4962 8.82839,-3.1654 16.76016,-3.1706 5.16245,0 5.98634,0.1833 7.14958,1.6199 1.6601,2.0501 1.68767,3.2157 0.0613,2.5916 -2.03895,-0.7824 -13.75538,-0.529 -17.09289,0.3697 -5.29502,1.4258 -9.73046,4.1204 -13.07411,7.9427 -10.89969,12.46 -15.45272,35.48557 -10.28495,52.01301 2.93555,9.38839 7.29233,15.56202 14.02957,19.88011 3.45882,2.21686 4.74274,2.61626 8.93196,2.77854 8.38853,0.32494 15.66905,-2.13929 29.7056,-10.05439 11.73637,-6.61804 17.32698,-12.72432 25.45903,-27.80735 2.55156,-4.73254 3.09576,-6.42913 3.07908,-9.59939 -0.0276,-5.24963 -2.72633,-10.5195 -8.68042,-16.95043 l -4.77381,-5.1562 h 2.52093 c 2.04026,0 3.07286,0.5988 5.41564,3.1404 7.44322,8.07496 10.15068,14.90743 8.81613,22.24815 -0.71157,3.91397 -1.15477,4.85991 -6.33482,13.52056 -7.23191,12.0912 -12.16016,17.11306 -23.00896,23.44596 -14.00058,8.17274 -21.01854,10.6529 -30.90909,10.92334 -5.01576,0.13715 -5.83482,-0.0584 -10.18181,-2.43115 z m -275.46898,-4.33844 c -11.07937,-2.98284 -19.50813,-11.1368 -24.89969,-24.08791 -3.21412,-7.72067 -4.33138,-13.81971 -4.34597,-23.72428 -0.0152,-10.31613 1.40417,-17.84963 4.71425,-25.02183 4.41254,-9.561 11.03773,-14.9175 21.88071,-17.6907 7.33832,-1.8768 9.87217,-1.857 11.08604,0.087 0.52394,0.839 0.84812,1.5992 0.7204,1.6893 -0.12772,0.09 -3.20152,0.6743 -6.83068,1.2982 -11.64886,2.0026 -18.59776,6.6837 -22.83707,15.3841 -3.75178,7.6999 -4.71725,12.7304 -4.69571,24.46671 0.0183,9.98178 0.14612,10.91476 2.39108,17.45455 2.80074,8.15886 7.70409,16.37654 11.92992,19.99369 3.62102,3.09946 9.98139,6.22756 13.66792,6.72202 5.96516,0.8001 15.57762,-2.81973 23.58863,-8.88292 7.51227,-5.68572 16.06522,-13.94775 18.98336,-18.33768 3.12135,-4.69563 8.48992,-18.23202 9.80911,-24.73284 1.60209,-7.89493 -2.07431,-14.40313 -11.91826,-21.09863 -5.54929,-3.7745 -5.62679,-3.8687 -3.76407,-4.5769 1.04604,-0.3977 2.23071,-0.7231 2.63259,-0.7231 1.40407,0 6.84658,4.2784 11.2554,8.848 7.53513,7.8099 7.96675,14.0542 2.07278,29.98698 -4.38826,11.86251 -8.60747,18.27346 -16.93714,25.73541 -11.53769,10.33579 -19.5097,15.22329 -28.06827,17.20816 -5.72649,1.32805 -5.51371,1.328 -10.43533,0.003 z m 161.28168,-1.42449 c -0.6866,-0.82731 -0.73055,-1.36646 -0.15804,-1.93897 1.1033,-1.1033 3.23052,-0.13695 2.94455,1.33765 -0.32659,1.68399 -1.6508,1.96975 -2.78651,0.60132 z m 130.31005,-3.38325 c 0.13249,-0.93558 0.73179,-1.70106 1.33179,-1.70106 1.57726,0 1.35999,2.83735 -0.24088,3.14565 -1.03277,0.1989 -1.2777,-0.12545 -1.09091,-1.44459 z m -16.72727,-5.09091 c 0.13249,-0.93558 0.73179,-1.70106 1.33179,-1.70106 1.57726,0 1.35998,2.83735 -0.24088,3.14565 -1.03277,0.1989 -1.2777,-0.12544 -1.09091,-1.44459 z m -98.53184,-0.35257 c -1.12035,-1.12036 -0.47084,-3.16667 1.00512,-3.16667 1.13129,0 1.44741,0.39229 1.27273,1.5794 -0.24135,1.64021 -1.41033,2.45479 -2.27785,1.58727 z m -163.40909,-2.46222 c 0,-1.66352 1.91087,-2.72085 2.98182,-1.6499 1.04429,1.04429 -0.0248,3.12727 -1.60509,3.12727 -0.89897,0 -1.37673,-0.51269 -1.37673,-1.47737 z m -17.17818,-1.03326 c -0.51179,-1.33371 0.23308,-2.58028 1.54182,-2.58028 1.49678,0 2.06389,1.37308 1.06447,2.57731 -1.11886,1.34814 -2.08967,1.34924 -2.60629,0.003 z m 139.48676,-4.26352 c -1.74384,-1.85624 -2.04564,-3.76213 -0.72496,-4.57835 0.51121,-0.31595 1.66099,0.4346 2.85287,1.86227 3.11009,3.72538 1.15941,6.21526 -2.12791,2.71608 z m 22.56934,0.0884 c -1.32944,-1.32943 -1.05199,-2.76883 0.5337,-2.76883 1.91168,0 2.62573,1.36525 1.37054,2.62044 -0.80163,0.80162 -1.21853,0.83411 -1.90424,0.14839 z m 127.25331,-5.8523 c 0.34487,-2.41728 2.77785,-2.62973 2.77785,-0.24258 0,1.40762 -0.37307,1.87151 -1.50513,1.87151 -1.14316,0 -1.44923,-0.39174 -1.27272,-1.62893 z m 20.36591,-1.8194 c 0.1457,-1.26234 0.73177,-2.08902 1.59752,-2.25337 1.96527,-0.3731 2.80057,1.40157 1.39218,2.95781 -1.79339,1.98168 -3.25985,1.63615 -2.9897,-0.70444 z m -301.84142,-3.02876 c -1.32221,-0.81747 -0.76712,-3.26471 0.80938,-3.56831 0.69662,-0.13416 1.47397,0.29655 1.72746,0.95713 0.59511,1.55081 -1.22379,3.423 -2.53684,2.61118 z m 320.16476,-1.85519 c -0.66041,-1.721 0.24224,-3.30409 1.88396,-3.30409 1.96292,0 1.97149,2.59347 0.012,3.64214 -1.15306,0.6171 -1.5571,0.54506 -1.89599,-0.33805 z m -301.02785,-4.0727 c -0.86145,-1.39384 0.34439,-4.32229 1.77978,-4.32229 1.85883,0 2.36279,1.69111 1.05876,3.55287 -1.18632,1.6937 -2.11219,1.94467 -2.83854,0.76942 z m 146.6,-0.28736 c -1.02909,-1.23997 -0.76272,-3.42755 0.46722,-3.83704 1.08734,-0.36202 2.65614,2.48277 2.12806,3.85893 -0.50833,1.3247 -1.48456,1.31646 -2.59528,-0.0219 z m -42.79263,-3.45312 c -1.45452,-1.45451 -1.08431,-4.21818 0.56505,-4.21818 1.61564,0 4.03177,3.1626 3.30926,4.33165 -0.63315,1.02447 -2.79984,0.96101 -3.87431,-0.11347 z m 16.85818,-0.18335 c -0.50663,-1.32026 0.22924,-2.58028 1.50693,-2.58028 1.10251,0 2.06546,1.97705 1.44887,2.97472 -0.63569,1.02856 -2.5055,0.77904 -2.9558,-0.39444 z m 127.25726,-0.0403 c -0.2314,-0.60301 -0.2063,-2.23937 0.0558,-3.63636 0.35138,-1.87299 0.84981,-2.53998 1.8981,-2.53998 1.1612,0 1.42159,0.5062 1.42159,2.76363 0,3.70286 -2.35173,6.08054 -3.37546,3.41271 z m 32.21853,-0.89807 c -0.2109,-0.34125 -0.11081,-1.0616 0.22243,-1.60079 0.73759,-1.19346 3.1826,-0.42222 2.75289,0.86836 -0.36393,1.09303 -2.43705,1.60337 -2.97532,0.73243 z m -317.08548,-2.12676 c -0.86207,-0.86206 -0.51858,-5.92762 0.42424,-6.2565 1.90809,-0.66559 2.72727,0.39964 2.72727,3.54644 0,2.61325 -0.24275,3.19491 -1.33333,3.19491 -0.73334,0 -1.55152,-0.21818 -1.81818,-0.48485 z m 170.42423,-1.7503 c 0,-1.86375 2.40715,-1.65232 2.77225,0.24349 0.16807,0.87272 -0.22358,1.26437 -1.26438,1.26437 -1.04079,0 -1.50787,-0.46707 -1.50787,-1.50786 z m -117.07977,-1.8961 c 0.0175,-2.07918 1.16885,-3.40247 2.51193,-2.88708 1.81023,0.69465 1.14261,3.68978 -0.8867,3.97799 -1.18546,0.16836 -1.63329,-0.13224 -1.62523,-1.09091 z m 252.48373,-1.86133 c 0.34487,-2.41727 2.77786,-2.62973 2.77786,-0.24257 0,1.40762 -0.37307,1.8715 -1.50513,1.8715 -1.14316,0 -1.44924,-0.39174 -1.27273,-1.62893 z m 29.72916,-0.86565 c -1.12683,-1.35775 1.64762,-4.79628 2.8875,-3.57863 1.01677,0.99854 0.3353,3.59919 -1.08604,4.14461 -0.55553,0.21318 -1.36618,-0.0415 -1.80146,-0.56598 z m -304.23452,-0.84925 c -0.81404,-0.81404 0.34322,-2.47435 1.72467,-2.47435 0.89189,0 1.37674,0.51225 1.37674,1.45454 0,1.38671 -2.05785,2.06337 -3.10141,1.01981 z m 159.00077,-4.29253 c -0.51442,-1.34054 0.16048,-3.27273 1.14313,-3.27273 0.99107,0 2.40095,2.77176 1.85731,3.6514 -0.67015,1.08431 -2.52907,0.84971 -3.00044,-0.37867 z m -171.60237,-0.6387 c -0.58864,-1.53395 0.2376,-2.63403 1.97833,-2.63403 1.09871,0 1.40443,0.40495 1.2298,1.62893 -0.27122,1.90108 -2.58602,2.62629 -3.20813,1.0051 z m 276.36656,-5.08323 c -0.63644,-1.6585 -0.0866,-3.482 1.31642,-4.3656 1.92727,-1.2136 3.22168,0.4462 2.32852,2.9859 -0.78586,2.2345 -2.99588,3.0711 -3.64494,1.3797 z m -246.75158,-1.8564 c -1.54043,-0.9521 -0.69629,-4.0241 1.17894,-4.2904 1.31448,-0.1867 1.63636,0.1177 1.63636,1.5473 0,2.1166 -1.48612,3.5646 -2.8153,2.7431 z m 126.79206,-2.313 c -0.26669,-0.8403 -0.14711,-1.8656 0.26574,-2.2784 1.21071,-1.2107 3.03022,-0.031 3.03022,1.9651 0,2.3303 -2.57802,2.5753 -3.29596,0.3133 z m -168.92221,-0.072 c -2.03108,-2.031 -0.11303,-6.374 2.39074,-5.4132 1.95325,0.7495 1.00058,6.286 -1.08165,6.286 -0.24,0 -0.82909,-0.3928 -1.30909,-0.8728 z"
         id="path36705" />
    </g>
  </g>
</svg>
