<?xml version="1.0" encoding="UTF-8" standalone="no"?>
<!-- Created with Inkscape (http://www.inkscape.org/) -->

<svg
   width="30"
   height="20"
   viewBox="0 0 21.166672 14.287506"
   version="1.1"
   id="svg5"
   xmlns="http://www.w3.org/2000/svg"
   xmlnsSvg="http://www.w3.org/2000/svg">
  <defs
     id="defs2" />
  <g
     id="layer1"
     transform="translate(-0.56263402,-1.0888652)">
    <path
       style="fill:#000000;stroke-width:0.0336904"
       d="M 5.7265501,15.30067 C 5.5717569,15.198787 5.4558277,14.956134 5.4342245,14.688796 c -0.014072,-0.174154 2.984e-4,-0.272369 0.074331,-0.50826 0.1324516,-0.421987 0.3964432,-0.965948 0.6850264,-1.411509 0.046607,-0.07196 0.046125,-0.07193 -0.2337908,0.01102 -0.2157064,0.06393 -0.3859,0.08701 -0.736838,0.09992 -0.3802144,0.014 -0.4929996,0.03087 -0.6760656,0.101186 -0.1208464,0.04641 -0.2349324,0.09649 -0.2535243,0.111303 -0.018591,0.0148 -0.1859179,0.105598 -0.3718358,0.201764 -0.4285453,0.221667 -0.801046,0.468844 -1.1662126,0.773853 -0.572827,0.478461 -0.9083967,0.676411 -1.3352287,0.787642 -0.3505671,0.09135 -0.64919744,0.0066 -0.79675048,-0.226243 -0.0585138,-0.09232 -0.0674118,-0.151449 -0.0568919,-0.378059 0.0104436,-0.224979 0.0304324,-0.302096 0.123021,-0.474637 0.19054522,-0.355086 0.92767918,-1.078062 1.61795688,-1.58688 0.1347906,-0.09936 0.2450737,-0.19129 0.2450737,-0.204295 0,-0.013 -0.064649,-0.04275 -0.1436639,-0.06611 C 2.1959833,11.85658 1.8728994,11.690826 1.7630405,11.588175 1.4645855,11.3093 1.2014299,10.848695 1.0009352,10.254247 0.86288434,9.8449398 0.81638454,9.5173908 0.83905918,9.1139838 0.86077574,8.7276265 0.94506877,8.4033859 1.1372776,7.9668626 1.264748,7.6773658 1.2698416,7.6535622 1.2235003,7.5639274 1.0709789,7.2689171 0.79472574,5.9612199 0.79472574,5.5342404 c 0,-0.4341673 0.31862366,-0.6666726 0.82083256,-0.5989757 0.4994223,0.067321 1.4752318,0.4291866 1.6646014,0.6172936 0.1293178,0.1284559 0.1785051,0.1284929 0.4788327,3.667e-4 0.1560581,-0.066582 0.4618252,-0.1677866 0.6794825,-0.2248996 0.36461,-0.095673 0.4396164,-0.1039171 0.9534944,-0.1048 0.512646,-8.735e-4 0.5818708,0.00642 0.8559544,0.090273 0.16401,0.050177 0.4016072,0.1401566 0.527994,0.1999546 L 7.0057113,5.6221762 7.2551921,5.3924392 C 7.8118073,4.8798735 8.1783292,4.6618061 8.5228516,4.6382268 c 0.2757208,-0.01887 0.4211952,0.050878 0.5738352,0.2751289 0.1387872,0.2038981 0.2975872,0.6753614 0.3718408,1.1039585 0.029512,0.1703397 0.056064,0.3114492 0.059,0.3135773 0.00296,0.00214 0.2522304,-0.027348 0.5539814,-0.065501 0.503665,-0.063685 0.590951,-0.065924 1.064803,-0.027321 0.592772,0.048289 1.314158,0.1656647 2.493654,0.4057384 1.473932,0.300002 1.859796,0.4265432 3.040247,0.9970229 l 0.724722,0.3502395 0.07805,-0.093309 c 0.121355,-0.1450949 0.308405,-0.540894 0.3691,-0.7810174 0.0406,-0.1606241 0.05093,-0.3145194 0.03947,-0.5876139 C 17.878345,6.2146182 17.856755,6.1021389 17.747507,5.7790638 17.676824,5.5700238 17.524552,5.2149371 17.409132,4.9899811 17.293711,4.7650251 17.046551,4.2853966 16.859889,3.9241403 16.419021,3.0709042 16.298954,2.7175448 16.295834,2.2640926 c -0.0021,-0.3018065 0.0075,-0.3569588 0.09503,-0.5451145 0.101574,-0.218451 0.322875,-0.4549977 0.53116,-0.5677599 0.08936,-0.048376 0.187321,-0.062353 0.437016,-0.062353 0.293851,0 0.340888,0.00934 0.54085,0.1073947 0.75138,0.3684491 1.279951,1.1874184 1.469372,2.2766386 0.313393,1.8021347 -0.106943,4.0017605 -0.934745,4.8915172 -0.113985,0.122518 -0.150845,0.1831473 -0.121351,0.1996118 0.135597,0.075703 0.90969,0.6714741 1.232309,0.9484345 0.624143,0.535815 1.17944,1.1738 1.687559,1.938853 0.575785,0.86693 0.650199,1.383593 0.225026,1.56235 -0.291375,0.122504 -0.568774,0.04195 -1.581388,-0.459211 -0.847728,-0.419556 -1.120219,-0.507973 -1.326349,-0.430367 -0.155123,0.0584 -0.179587,0.163761 -0.08209,0.35354 0.07327,0.142633 0.135447,0.219348 0.760742,0.93871 0.519985,0.598208 0.6083,0.736083 0.611525,0.95472 0.0018,0.12569 -0.01542,0.179091 -0.08012,0.247527 -0.133521,0.141256 -0.288895,0.169961 -0.58991,0.108985 -0.363308,-0.0736 -0.66974,-0.231066 -1.254391,-0.644602 -1.39226,-0.98478 -2.662292,-1.632776 -3.721208,-1.898636 -0.384345,-0.0965 -1.210662,-0.232668 -1.837889,-0.302869 -0.524275,-0.05868 -1.25514,-0.02315 -1.674803,0.08142 -0.480837,0.119807 -0.8972004,0.27645 -1.1232892,0.422598 -0.2741808,0.177236 -0.8924088,0.775147 -1.5661163,1.51465 -0.7622332,0.836674 -1.2222872,1.232238 -1.639982,1.410089 -0.2153016,0.09167 -0.4785608,0.08766 -0.6262424,-0.0095 z m 0.6821576,-0.23071 c 0.3071224,-0.162603 0.7142492,-0.509266 1.1387756,-0.969653 1.0596051,-1.149109 1.4206419,-1.503392 1.9236523,-1.887657 0.2684752,-0.205097 1.1591924,-0.467288 1.8198754,-0.535697 0.423805,-0.04388 0.894974,-0.01539 1.77013,0.107055 1.018151,0.142447 1.53961,0.284369 2.421103,0.65894 0.753492,0.320179 1.548866,0.783988 2.507861,1.462415 0.675684,0.478002 1.074207,0.665035 1.417039,0.665035 0.24024,0 0.318286,-0.161468 0.190647,-0.394429 -0.06263,-0.11432 -0.490275,-0.629251 -0.871526,-1.049422 -0.421326,-0.464339 -0.581585,-0.791656 -0.485725,-0.992071 0.09767,-0.204204 0.435308,-0.2723 0.810264,-0.163419 0.10098,0.02932 0.487224,0.204961 0.858319,0.390306 0.828545,0.413823 1.055727,0.501358 1.301179,0.501358 0.159797,0 0.197907,-0.01276 0.263239,-0.08822 0.09414,-0.10872 0.09645,-0.230907 0.009,-0.477962 C 21.329308,11.863474 20.619012,10.850505 20.041464,10.241387 19.282472,9.440857 17.982426,8.493342 16.885088,7.9408866 15.608447,7.2981608 15.056776,7.1159346 13.369697,6.7796858 11.595488,6.4260719 10.831848,6.3523857 10.028269,6.4572603 9.7987572,6.4872154 9.5972052,6.5032695 9.5803764,6.492937 c -0.040912,-0.02512 -0.038552,0.075519 0.00842,0.3580032 0.040992,0.2465611 0.019712,0.319012 -0.082278,0.2801357 C 9.4440828,7.1072795 9.4078564,6.9493437 9.329782,6.3605934 9.2294788,5.6042228 9.0135156,4.9987541 8.7955228,4.8627624 8.5238556,4.6932865 8.0154785,4.938195 7.3558245,5.5563312 7.0776181,5.8170279 7.0249537,5.8244186 6.6408625,5.6566691 6.1393261,5.4376263 5.6660801,5.3598779 5.1153053,5.4060395 4.7398997,5.4375043 4.1861669,5.5702662 3.8545695,5.7083145 3.6037814,5.8127212 3.3211046,5.8400485 3.2725028,5.7645849 3.175368,5.6137655 2.1559748,5.2151464 1.6472436,5.129051 1.3528992,5.0792377 1.1655707,5.1267862 1.0513208,5.2803398 0.9581551,5.4055484 0.9658704,5.5875542 1.0964048,6.3438803 c 0.1012898,0.58688 0.1894183,0.9130437 0.3102957,1.1484035 0.035254,0.068644 0.064098,0.1427015 0.064098,0.1645731 0,0.021873 -0.068755,0.188763 -0.1527901,0.3708689 -0.2861317,0.6200585 -0.37009259,1.2612133 -0.2389842,1.8249725 0.083256,0.3579957 0.343257,0.9918857 0.497471,1.2128477 0.2737,0.392166 0.4436469,0.521918 0.8740642,0.667337 0.2885808,0.0975 0.3385665,0.132554 0.3385665,0.237441 0,0.08278 -0.00678,0.08898 -0.6084589,0.556704 -0.5138234,0.399425 -1.21577391,1.106777 -1.33003562,1.340268 -0.10542672,0.215437 -0.14561292,0.477584 -0.0936262,0.610748 0.0856179,0.21931 0.38364952,0.280998 0.75711392,0.156711 0.3182509,-0.105911 0.527386,-0.237975 1.1083072,-0.699867 0.5739594,-0.456357 0.8551364,-0.635414 1.5368741,-0.9787 l 0.440585,-0.221855 0.4797064,-0.02358 c 0.4687324,-0.02305 0.7231524,-0.07039 1.1707936,-0.21787 0.208736,-0.06877 0.2909024,-0.06365 0.2909024,0.01817 0,0.02687 -0.1242396,0.255686 -0.2760884,0.508471 -0.2876,0.478777 -0.4932664,0.910428 -0.5879744,1.23404 -0.1056108,0.360868 -0.041706,0.741556 0.1496672,0.891578 0.1177212,0.09229 0.3132676,0.06702 0.5818228,-0.07516 z M 18.398115,8.1038835 C 18.992608,7.3272481 19.322933,5.9749501 19.274761,4.5150161 19.252927,3.8532223 19.198694,3.4629851 19.064754,3.0038686 18.711976,1.7946268 17.698816,0.97971329 16.992919,1.3374351 16.80932,1.430476 16.59577,1.6816801 16.528012,1.8843159 c -0.07611,0.2276244 -0.05196,0.6667513 0.05414,0.9841728 0.04321,0.129275 0.339557,0.748788 0.658552,1.3766953 0.592043,1.1653728 0.729934,1.4974491 0.812272,1.9561744 0.06155,0.3429155 0.06041,0.5604199 -0.0046,0.874182 -0.06581,0.3176468 -0.154448,0.5343132 -0.323782,0.7914921 -0.0713,0.108295 -0.129582,0.2065103 -0.129504,0.2182566 0,0.011745 0.110358,0.09133 0.245074,0.1768527 0.292033,0.185397 0.295688,0.1843599 0.557951,-0.1582583 z"
       id="path265" />
  </g>
</svg>
